<svg fill="none" xmlns="http://www.w3.org/2000/svg" viewBox="0 0 56 52"><path d="M55.002 30.5c.1-1.4-.6-2.7-1.2-3.4 1.3-1.2 1.8-2.5 1.7-3.7-.2-2.3-2.7-3.5-2.8-3.6-.1-.1-.2-.1-.3-.1h-.1l-14.1.1c-.4 0-1 0-1.3-.3-.2-.3-.2-.6-.2-.7v-.1c0-.5.4-5 .6-7.7.7-7.2-3.2-9.2-3.3-9.3-.2-.1-2.3-1.4-4-.8-.5.2-1.2.6-1.6 1.7-.1.1-.1.3-.1.4 1.7 13.4-8 19.4-10.6 20.7-1-1.9-2.9-3.2-5.2-3.2h-6.1c-3.2 0-5.8 2.6-5.8 5.8v19.4c0 3.2 2.6 5.8 5.8 5.8h6.1c2.7 0 5-1.8 5.6-4.4l5.3 1.4H50.002c.2 0 .3-.1.5-.2 1.6-1.2 2.5-2.6 2.6-4.1.1-1.3-.5-2.3-1-3 1.4-1.3 2-2.7 2-4.1 0-1.4-.7-2.5-1.2-3.1 1.3-.9 2-2.2 2.1-3.5Zm-3.1-4.2c-.2.1-.3.4-.3.7 0 .3.1.5.3.7.1.1 1.4 1.3 1.3 2.7-.1 1-.8 2-2.1 3-.2.1-.3.4-.4.7 0 .3.1.5.3.8 0 0 1.4 1.1 1.4 2.5 0 1.1-.7 2.2-2 3.3-.3.1-.4.3-.4.6s.1.5.3.7c0 0 1.2 1 1.1 2.3-.1.9-.6 1.7-1.6 2.5h-26l-5.4-1.4v-19c0-.3 0-.5-.1-.8 2.5-1.2 13.7-7.8 11.9-22.5.1-.3.3-.4.5-.4.8-.3 2 .3 2.5.6.1.1 2.9 1.6 2.5 7.4 0 .1-.6 6.8-.7 7.8 0 .3-.1 1.3.6 2.1.6.7 1.5 1 2.7 1l13.7-.1c.7.4 1.6 1.2 1.6 2.1.2.8-.5 1.7-1.7 2.7Zm-35.3.1v19.4c0 2.2-1.8 4-4 4h-6.1c-2.2 0-4-1.8-4-4V26.4c0-2.2 1.8-4 4-4h6.1c2.1 0 4 1.8 4 4Z" fill="#fff" stroke="#fff" stroke-width=".263" stroke-miterlimit="10"/><path d="M11.605 41c-1.8 0-3.3 1.5-3.3 3.3 0 1.8 1.5 3.3 3.3 3.3 1.8 0 3.3-1.5 3.3-3.3.1-1.8-1.4-3.3-3.3-3.3Zm1.6 3.4c0 .9-.7 1.6-1.6 1.6-.9 0-1.6-.7-1.6-1.6 0-.9.7-1.6 1.6-1.6.9 0 1.6.8 1.6 1.6Z" fill="#fff" stroke="#fff" stroke-width=".263" stroke-miterlimit="10"/></svg>
