<svg fill="none" xmlns="http://www.w3.org/2000/svg" viewBox="0 0 58 50"><path d="M55.898 27.1h-7.3c-.1 0-.4.1-.5.1l-2.7 1.6h-10c-.6 0-1 .4-1 1v2c0 .6.4 1 1 1s1-.4 1-1v-1h9.3c.1 0 .4-.1.5-.1l2.7-1.6h6.1v14.8c0 .6.4 1 1 1s1-.4 1-1V28.1c-.1-.5-.6-1-1.1-1Z" fill="#fff" stroke="#fff" stroke-width=".275" stroke-miterlimit="10"/><path d="M50.3 35.2c-.1-.4-.5-.6-.9-.6H28.8c-.4 0-.6.1-.9.4-.2.3-.2.6-.1.9l5.8 13c.1.4.5.6.9.6h20.6c.4 0 .6-.1.9-.4.2-.3.2-.6.1-.9l-5.8-13ZM35.2 47.7l-4.9-11.1h18.4l4.9 11.1H35.2ZM8.703 6.2c.6 0 1-.4 1-1v-1h9.3c.1 0 .4-.1.5-.1l2.7-1.6h6.1v14.8c0 .6.4 1 1 1s1-.4 1-1V1.4c0-.6-.4-1-1-1h-7.4c-.1 0-.4.1-.5.1l-2.7 1.6h-10c-.6 0-1 .4-1 1v2.1c0 .6.4 1 1 1Z" fill="#fff" stroke="#fff" stroke-width=".275" stroke-miterlimit="10"/><path d="M7.9 23h20.5c.4 0 .6-.1.9-.4.2-.3.2-.6.1-.9l-5.8-13c-.1-.4-.5-.6-.9-.6H2.1c-.4 0-.6.1-.9.4-.3.3-.2.6-.1.9L7 22.5c.2.2.5.5.9.5ZM22 9.9 26.9 21H8.5L3.6 9.9H22ZM36.5 4.6h5.6c4.4 0 7.9 3.6 7.9 7.9v4.7h-2l3 5.1 3-5.1h-2v-4.7c0-5.5-4.5-9.9-9.9-9.9h-5.6c-.6 0-1 .4-1 1s.4 1 1 1ZM24.702 46.6h-8.7c-4.4 0-7.9-3.6-7.9-7.9v-4.3h2l-3-5.2-3 5.1h2v4.3c0 5.5 4.5 9.9 9.9 9.9h8.7c.6 0 1-.4 1-1 0-.5-.4-.9-1-.9Z" fill="#fff" stroke="#fff" stroke-width=".275" stroke-miterlimit="10"/></svg>