<svg fill="none" xmlns="http://www.w3.org/2000/svg" viewBox="0 0 58 62"><path d="M45.404 29.4c0-9.2-7.5-16.8-16.8-16.8s-16.8 7.5-16.8 16.7c-.1.9-.3 5.7 5.7 12.4 1.1 1.4 1.5 4 1.6 5.1 0 .3.1 1.5.1 2.1V55.6c0 .3.1.6.3.7l2.9 2.8c.1.1 2.2 1.9 6.2 1.9 4.1 0 6.2-1.9 6.2-1.9l2.8-2.8c.2-.2.3-.5.3-.7V48.9c-.1-.6.1-1.8.1-2.1.2-1.1.5-3.7 1.6-5.1 6.1-6.7 5.9-11.4 5.8-12.3Zm-16.8 29.7c-3 0-4.5-1.2-4.7-1.4l-1-1h11.4l-1 1s-1.5 1.4-4.7 1.4Zm-7.3-4.4v-1.8h14.5v1.8h-14.5Zm0-4v-1.6h14.5v1.6h-14.5Zm14.5-3.8h-14.4c0-.4-.7-4.7-2.3-6.5-5.8-6.4-5.2-10.7-5.2-10.8v-.2c0-8.1 6.6-14.7 14.7-14.7s14.7 6.6 14.7 14.7v.2c0 .1.5 4.4-5.2 10.8-1.6 1.9-2.3 6.1-2.3 6.5Z" fill="#fff" stroke="#fff" stroke-width=".275" stroke-miterlimit="10"/><path d="M28.603 18.3c-6.3 0-11.4 5.1-11.4 11.4 0 .6.5 1.1 1.1 1.1.6 0 1.1-.5 1.1-1.1 0-5.1 4.2-9.2 9.3-9.2.6 0 1.1-.5 1.1-1.1-.2-.7-.6-1.1-1.2-1.1ZM29.202 9.9c.6 0 1.1-.5 1.1-1.1V1.7c0-.6-.5-1.1-1.1-1.1-.6 0-1.1.5-1.1 1.1v7.1c0 .6.5 1.1 1.1 1.1ZM43.405 16c.3 0 .6-.1.7-.3l4.9-4.9c.4-.4.4-1.1 0-1.5-.4-.4-1.1-.4-1.5 0l-4.9 4.9c-.4.4-.4 1.1 0 1.5.3.1.5.3.8.3ZM56.2 28.1h-7.1c-.6 0-1.1.5-1.1 1.1 0 .6.5 1.1 1.1 1.1h7.1c.6 0 1.1-.5 1.1-1.1 0-.6-.5-1.1-1.1-1.1ZM43.902 42.7c-.4-.4-1.1-.4-1.5 0-.4.4-.4 1.1 0 1.5l4.9 4.9c.2.2.5.3.7.3.3 0 .6-.1.7-.3.2-.2.3-.5.3-.7 0-.3-.1-.6-.3-.7l-4.8-5ZM13.802 42.4l-4.9 4.9c-.2.2-.3.5-.3.7 0 .3.1.6.3.7.2.2.5.3.7.3.3 0 .6-.1.7-.3l4.9-4.9c.2-.2.3-.5.3-.7 0-.3-.1-.6-.3-.7-.3-.4-1-.4-1.4 0ZM9.902 28.9c0-.6-.5-1.1-1.1-1.1h-7.1c-.6 0-1.1.5-1.1 1.1 0 .6.5 1.1 1.1 1.1h7.1c.6-.1 1.1-.6 1.1-1.1ZM14.105 15.4c.2.2.5.3.7.3.2 0 .6-.1.7-.3.2-.2.3-.5.3-.7 0-.3-.1-.6-.3-.7l-4.9-5c-.4-.4-1.1-.4-1.5 0-.4.4-.4 1.1 0 1.5l5 4.9Z" fill="#fff" stroke="#fff" stroke-width=".275" stroke-miterlimit="10"/></svg>