<svg fill="none" xmlns="http://www.w3.org/2000/svg" viewBox="0 0 54 46"><path d="M52.397 10.1c-.5 0-.9.4-.9.9v29.9h-16.7c-.3 0-.5.1-.7.3l-2.4 2.4h-9.4l-2.3-2.4c-.2-.2-.4-.3-.7-.3h-16.7V11c0-.5-.4-.9-.9-.9s-.9.4-.9.9v30.8c0 .5.4.9.9.9h17.2l2.4 2.4c.2.2.4.3.7.3h10.3c.3 0 .5-.1.7-.3l2.4-2.4h17.2c.5 0 .9-.4.9-.9V11c-.2-.5-.6-.9-1.1-.9Z" fill="#fff" stroke="#fff" stroke-width=".275" stroke-miterlimit="10"/><path d="M6.195 38.9h16.8c.5 0 3.1.4 3.1 1.8 0 .5.4.9.9.9s.9-.4.9-.9c0-1.4 2.6-1.8 3.1-1.8h16.8c.5 0 .9-.4.9-.9V8.5c0-.5-.4-.9-.9-.9s-.9.4-.9.9v28.4H31.095c.3-.1.5-.3.8-.4 2.4-.9 11.9-3.6 11.9-3.7.4-.1.7-.5.7-.9V1.5c0-.3-.1-.6-.4-.7-.2-.2-.5-.3-.8-.2-1.6.3-12.9 2.7-16.4 7.2-3.4-4.5-14.8-6.9-16.3-7.3-.3-.1-.6 0-.8.2-.2.2-.4.4-.4.7v30.5c0 .4.3.8.7.9.1 0 9.5 2.8 11.9 3.7.3.1.6.2.8.4h.2-15.9V8.5c0-.5-.4-.9-.9-.9s-.9.4-.9.9v29.4c-.2.5.3 1 .9 1Zm36.4-36.3v28.5c-2.3.6-9.2 2.7-11.4 3.6-1.2.5-2.4 1.4-3.2 2.3V10.3c0-3.2 8.5-6.3 14.6-7.7Zm-31.2 28.6V2.6c6.1 1.4 14.6 4.4 14.6 7.7v26.6c-.9-.9-1.9-1.8-3.2-2.3-2.1-.7-9.1-2.8-11.4-3.4Z" fill="#fff" stroke="#fff" stroke-width=".275" stroke-miterlimit="10"/></svg>