<svg width="55" height="54" viewBox="0 0 55 54" fill="none" xmlns="http://www.w3.org/2000/svg">
<path d="M53.5 46.1002L38.2 30.9002C37.6 30.3002 36.8 30.3002 36.3 30.8002L34.4 28.9002C36.5 25.9002 37.6 22.3002 37.6 18.5002C37.6 13.6002 35.7 9.10019 32.2 5.60019C28.8 2.20019 24.2 0.200195 19.3 0.200195C14.4 0.200195 9.9 2.10019 6.4 5.60019C2.9 9.10019 1 13.6002 1 18.5002C1 23.4002 2.9 27.9002 6.4 31.4002C9.8 34.8002 14.4 36.8002 19.3 36.8002C23.1 36.8002 26.7 35.7002 29.7 33.6002L31.6 35.5002C31.4 35.8002 31.2 36.1002 31.2 36.4002C31.2 36.8002 31.3 37.1002 31.6 37.4002L46.8 52.6002C47.4 53.2002 48.3 53.6002 49.2 53.6002C50.1 53.6002 51 53.2002 51.6 52.6002L53.2 51.0002C54.7 49.7002 54.7 47.4002 53.5 46.1002ZM33 34.1002L31.2 32.3002C31.6 32.0002 31.9 31.7002 32.2 31.4002C32.6 31.0002 32.8 30.8002 33.1 30.4002L34.9 32.2002L33.9 33.2002L33 34.1002ZM30.9 30.1002C27.8 33.2002 23.7 34.9002 19.3 34.9002C14.9 34.9002 10.8 33.2002 7.7 30.1002C4.6 27.0002 2.9 22.9002 2.9 18.5002C2.9 14.1002 4.7 10.0002 7.8 7.00019C10.9 4.00019 15 2.2002 19.4 2.2002C23.8 2.2002 27.9 3.90019 31 7.00019C37.3 13.4002 37.3 23.8002 30.9 30.1002ZM37.2 32.6002L52.1 47.5002C52.7 48.1002 52.7 49.1002 52.1 49.7002L50.5 51.3002C50.2 51.6002 49.8 51.7002 49.4 51.7002C49 51.7002 48.5 51.6002 48.3 51.3002L33.4 36.4002L37.2 32.6002Z" fill="white" stroke="white" stroke-width="0.275" stroke-miterlimit="10"/>
<path d="M19.6984 12H19.1984C19.1984 12 18.6984 12 18.5984 12C11.2984 12.5 6.09844 17.8 5.79844 18C5.59844 18.2 5.59844 18.5 5.79844 18.6C9.79844 22.6 14.1984 24.7 18.8984 24.7H18.9984C18.9984 24.7 18.9984 24.7 19.0984 24.7H19.1984C19.1984 24.7 19.1984 24.7 19.2984 24.7C19.3984 24.7 19.8984 24.7 19.9984 24.7C27.2984 24.2 32.4984 18.9 32.7984 18.7C32.9984 18.5 32.9984 18.2 32.7984 18.1C28.6984 14 24.2984 12 19.6984 12ZM12.8984 18.3C12.8984 20.2 13.7984 22.1 15.3984 23.3C12.3984 22.5 9.59844 20.9 6.89844 18.3C7.79844 17.5 10.8984 14.9 15.0984 13.6C13.5984 14.8 12.8984 16.5 12.8984 18.3ZM24.6984 18.3C24.6984 21.1 22.5984 23.4 19.8984 23.7C19.6984 23.7 19.3984 23.7 19.1984 23.7C16.1984 23.7 13.7984 21.2 13.7984 18.2C13.7984 15.4 15.8984 13.1 18.5984 12.8C18.7984 12.8 19.0984 12.8 19.2984 12.8C22.2984 12.9 24.6984 15.4 24.6984 18.3ZM25.6984 18.3C25.6984 16.3 24.7984 14.5 23.2984 13.3C26.2984 14.1 29.0984 15.7 31.7984 18.3C30.8984 19.1 27.7984 21.7 23.5984 23C24.8984 21.9 25.6984 20.1 25.6984 18.3Z" fill="white" stroke="white" stroke-width="0.825" stroke-miterlimit="10"/>
<path d="M21.9 16.2C21.3 15.4 20.3 15 19.3 15C17.5 15 16 16.5 16 18.3C16 20.1 17.5 21.6 19.3 21.6C21.1 21.6 22.6 20.1 22.6 18.3C22.6 17.6 22.4 16.9 22 16.4C22 16.3 21.9 16.3 21.9 16.2ZM18.3 17.5C18.3 18.6 19.2 19.5 20.3 19.5C20.7 19.5 21.2 19.3 21.6 19.1C21.3 20.1 20.3 20.7 19.3 20.7C18 20.7 16.9 19.6 16.9 18.3C16.9 17 17.9 16 19.1 15.9C18.6 16.3 18.3 16.9 18.3 17.5Z" fill="white" stroke="white" stroke-width="0.825" stroke-miterlimit="10"/>
</svg>
