<svg fill="none" xmlns="http://www.w3.org/2000/svg" viewBox="0 0 70 46"><path d="m69.097 22.5-12-20.9c-.1-.2-.4-.4-.6-.5-.3-.1-.5 0-.8.1l-5.6 3.2c-.5.3-.6.9-.4 1.4l1.2 2.1c-1.3.4-2.5.1-4.3-.4-.8-.2-1.6-.4-2.6-.6-11.1-2.6-15.4 1.1-15.6 1.3-.6.6-1.1 1.2-1.6 1.8-2.8.1-6-1.7-7.4-2.6l.8-1.4c.1-.2.1-.5.1-.8-.1-.3-.2-.5-.5-.6l-5.6-3.2c-.5-.3-1.1-.1-1.4.4l-11.9 21c-.1.2-.1.5-.1.8.1.3.2.5.5.6l5.6 3.2c.1.1.4.1.5.1.4 0 .7-.2.9-.5l1.7-3 3.1 3.9-.2.1c-1.3 1.6-1.1 4 .6 5.3.6.6 1.5.9 2.4.9h.4v.3c.1 1 .6 1.9 1.4 2.5.6.6 1.5.9 2.4.9h.3c0 1.1.4 2.1 1.4 2.9.7.6 1.5.9 2.4.9.2 0 .4 0 .6-.1.1 1 .6 1.9 1.4 2.6.6.6 1.5.9 2.4.9h.4c1-.1 1.9-.6 2.5-1.4l.7-.9c1.6.9 3.9 1.6 6.1 1.6 2.1 0 4.1-.7 5.5-2.6.4.1.6.1.9.1.5 0 1-.1 1.4-.3 2.1-1.2 2.5-2.3 2.6-3.6.5 0 1-.1 1.4-.3 1.3-.6 2-1.8 2.2-3.6.4.1.9.1 1.3.1.8 0 1.5-.2 2-.7.3-.3 1.8-1.6 1.6-3.7-.1-.6-.2-1.1-.5-1.6.9-.7 2.5-1.9 4.1-3.1l1.1 2c.1.2.4.4.6.5h.3c.2 0 .4-.1.5-.1l5.6-3.2c.3-.7.5-1.3.2-1.8ZM6.797 25l-3.8-2.2 11-19.1 3.8 2.2-11 19.1Zm9.1 7.1c-.4.1-.9-.1-1.3-.4-.7-.6-.9-1.7-.3-2.4l.9-1.1c.4-.4.9-.6 1.4-.6.4 0 .8.1 1.1.4.7.6.9 1.7.3 2.4l-1 1c-.2.4-.7.6-1.1.7Zm2.9 3.3c-.4-.3-.6-.7-.6-1.1-.1-.4.1-.9.4-1.3l4-4.9c.3-.4.7-.6 1.1-.6h.2c.4 0 .8.1 1.1.4.4.3.6.7.6 1.1.1.5-.1.9-.4 1.3l-.9 1.1-.1.1-3 3.8c-.3.4-.7.6-1.1.6-.6-.1-1-.2-1.3-.5Zm4 3.7c-.7-.6-.9-1.7-.3-2.4l.1-.2s.1 0 .1-.1l3.1-3.8c.6-.7 1.6-.8 2.4-.2.7.6.9 1.7.3 2.4l-3.3 4.1c-.5.7-1.6.8-2.4.2Zm5.7 3.8c-.5.1-.9-.1-1.3-.4-.4-.3-.6-.7-.6-1.1-.1-.4.1-.9.4-1.3l2.3-2.8c.3-.4.7-.6 1.1-.6h.2c.4 0 .8.1 1.1.4.4.3.6.7.6 1.1.1.4-.1.9-.4 1.3l-2.3 2.8c-.3.3-.6.5-1.1.6Zm25.6-11.2c-.4.4-1.3.4-2.4-.1-.1-.1-.2-.1-.3-.1-2.5-1-6.3-3.4-9.5-5.9-.4-.4-1.1-.3-1.4.1-.4.4-.3 1.1.1 1.4 1.7 1.4 5.9 4.6 9.5 6-.1 1-.4 2.1-1.1 2.4-2 .9-6.9-2.3-9.9-4.8-.4-.4-1.1-.4-1.4.1-.4.4-.4 1.1.1 1.4.6.5 4.9 4.1 8.6 5.1 0 .9-.2 1.4-1.6 2.1-.9.5-4.9-1.3-8.8-3.7-.5-.3-1.1-.1-1.4.3-.3.5-.1 1.1.3 1.4 1.4.9 4.1 2.5 6.4 3.4-2.4 2.3-6.3.9-8.2 0l.2-.3c1.3-1.6 1.1-4-.6-5.3-.6-.5-1.4-.8-2.1-.9.3-1.4-.1-2.9-1.3-3.8-.6-.5-1.3-.8-2.1-.9.1-.4.1-.9.1-1.3-.1-1-.6-1.9-1.4-2.5-1.6-1.3-4-1.1-5.3.6l-.6 1.3c-.2-.6-.6-1.1-1.1-1.5-1.4-1.1-3.4-1.1-4.7 0l-3.4-4.2 7.4-12.9c1.4.9 4.1 2.4 6.9 2.8-1.4 2-2.2 3.8-2.7 5.1-.4.9-.1 1.9.5 2.7.6.8 1.6 1.1 2.6.9 4.1-.6 6.6-3.6 7.3-4.6l2.1-.6c1.9 1.3 11 7.3 16.8 10.7 1.9 1.1 3.1 2.3 3.1 3.4.4 1.2-.7 2.2-.7 2.2Zm1.3-5.5c-.6-.6-1.4-1.2-2.5-1.9-6.4-3.7-17-10.7-17.1-10.8-.2-.1-.6-.2-.8-.1l-2.9.8c-.2.1-.4.2-.6.4 0 0-2.1 3.4-6.1 4.1-.4.1-.6-.1-.7-.3-.1-.1-.3-.4-.1-.8.5-1.5 1.6-3.6 3.5-6 .5-.6 1.1-1.3 1.8-1.9 0 0 3.9-3.1 13.8-.8.9.2 1.8.4 2.5.6 2.1.6 3.9 1.1 5.9.2l7.5 13.3c-1.4 1.1-3.2 2.5-4.2 3.2Zm7.7-1.4-9.8-16.9v-.1l-1.2-2.1 3.8-2.2 11 19.1-3.8 2.2Z" fill="#fff" stroke="#fff" stroke-width=".275" stroke-miterlimit="10"/></svg>