<?xml version="1.0" standalone="no"?>
<!DOCTYPE svg PUBLIC "-//W3C//DTD SVG 20010904//EN"
 "http://www.w3.org/TR/2001/REC-SVG-20010904/DTD/svg10.dtd">
<svg version="1.0" xmlns="http://www.w3.org/2000/svg"
 width="700.000000pt" height="700.000000pt" viewBox="0 0 700.000000 700.000000"
 preserveAspectRatio="xMidYMid meet">
<metadata>
Created by potrace 1.14, written by Peter Selinger 2001-2017
</metadata>
<g transform="translate(0.000000,700.000000) scale(0.100000,-0.100000)"
fill="#000000" stroke="none">
<path d="M3295 6984 c-185 -35 -375 -90 -570 -165 -98 -38 -363 -174 -475
-244 -311 -196 -613 -475 -843 -777 -172 -226 -331 -500 -436 -748 -18 -41
-36 -84 -41 -95 -39 -86 -146 -420 -164 -515 -3 -14 -8 -36 -11 -50 -27 -109
-60 -318 -53 -332 5 -10 45 -39 91 -66 88 -51 127 -70 282 -137 114 -50 450
-140 595 -161 19 -3 58 -9 85 -14 28 -5 77 -12 110 -16 33 -4 67 -8 76 -9 9
-2 52 -6 95 -10 43 -4 84 -8 89 -9 6 0 9 4 9 9 -23 154 -22 735 1 825 2 8 6
42 9 75 3 33 8 69 10 80 2 11 7 45 11 75 4 30 13 83 21 118 7 34 16 76 19 92
23 133 100 396 168 580 103 277 256 575 420 820 139 208 296 398 477 578 62
61 109 112 104 111 -5 -1 -40 -7 -79 -15z"/>
<path d="M3749 6963 c-108 -93 -349 -343 -431 -448 -12 -16 -29 -37 -35 -45
-48 -58 -160 -219 -224 -322 -184 -297 -299 -546 -410 -881 -43 -130 -108
-375 -123 -462 -2 -16 -12 -68 -20 -114 -9 -47 -18 -105 -21 -130 -3 -25 -8
-64 -11 -86 -11 -79 -13 -102 -20 -230 -12 -198 -8 -559 6 -550 3 2 8 30 9 61
1 32 4 60 6 63 2 3 6 30 10 60 8 61 6 51 35 186 111 507 394 935 765 1157 336
200 773 248 1187 128 71 -20 111 -34 153 -50 361 -140 537 -201 628 -219 96
-19 112 -21 183 -22 209 -2 381 115 512 349 43 76 97 220 108 287 3 22 8 44
11 48 13 22 12 214 -3 285 -85 410 -556 723 -1333 887 -118 25 -280 49 -396
60 -38 4 -81 9 -95 11 -14 3 -120 7 -236 10 l-210 5 -45 -38z"/>
<path d="M2217 2954 c-1 -1 -37 -5 -80 -9 -43 -3 -86 -8 -96 -10 -10 -2 -43
-6 -73 -9 -46 -5 -176 -26 -313 -51 -27 -5 -175 -39 -215 -49 -152 -39 -379
-124 -501 -187 -124 -65 -116 -45 -76 -200 64 -241 152 -471 265 -694 81 -157
98 -187 197 -335 216 -321 483 -598 791 -818 350 -249 770 -433 1179 -516 190
-39 223 -44 295 -52 36 -3 76 -8 90 -10 14 -3 129 -6 255 -9 202 -3 249 -1
385 20 183 27 191 29 340 61 63 14 124 27 135 29 74 16 331 101 322 107 -7 3
-28 9 -47 12 -129 21 -350 81 -516 142 -119 43 -308 122 -344 143 -8 5 -44 24
-80 42 -36 17 -101 53 -145 79 -803 471 -1371 1239 -1626 2199 l-32 122 -55
-3 c-29 -2 -54 -4 -55 -4z"/>
<path d="M2900 2050 c288 -573 707 -1031 1244 -1359 84 -52 298 -160 386 -196
36 -14 74 -30 85 -35 22 -9 57 -23 65 -25 3 0 48 -15 100 -32 173 -56 309 -89
492 -119 l106 -17 104 58 c174 97 327 218 421 335 104 129 165 288 173 453 17
363 -219 683 -567 767 -111 28 -246 10 -384 -49 -11 -5 -94 -37 -185 -71 -91
-34 -178 -68 -195 -75 -102 -43 -418 -138 -500 -150 -353 -53 -664 10 -960
193 -114 70 -262 203 -353 317 -31 39 -60 75 -65 80 -5 6 10 -28 33 -75z"/>
</g>
</svg>
