<?xml version="1.0" standalone="no"?>
<!DOCTYPE svg PUBLIC "-//W3C//DTD SVG 20010904//EN"
 "http://www.w3.org/TR/2001/REC-SVG-20010904/DTD/svg10.dtd">
<svg version="1.0" xmlns="http://www.w3.org/2000/svg"
 width="700.000000pt" height="700.000000pt" viewBox="0 0 700.000000 700.000000"
 preserveAspectRatio="xMidYMid meet">
<metadata>
Created by potrace 1.11, written by Peter Selinger 2001-2013
</metadata>
<g transform="translate(0.000000,700.000000) scale(0.100000,-0.100000)"
fill="#000000" stroke="none">
<path d="M3215 6989 c-427 -37 -839 -147 -1221 -329 -479 -227 -923 -585
-1259 -1015 -395 -505 -644 -1124 -717 -1780 -17 -155 -17 -575 0 -730 74
-668 335 -1303 748 -1820 113 -142 408 -437 549 -549 524 -416 1132 -666 1820
-748 144 -17 586 -17 730 0 816 97 1507 423 2079 982 590 576 934 1283 1038
2135 16 130 16 600 0 730 -82 672 -301 1227 -687 1740 -108 144 -160 203 -318
363 -660 668 -1556 1038 -2497 1031 -91 -1 -210 -6 -265 -10z m660 -214 c1259
-140 2341 -1013 2746 -2214 216 -641 233 -1322 48 -1968 -78 -275 -223 -601
-376 -843 -513 -816 -1363 -1373 -2308 -1510 -669 -98 -1327 4 -1930 300 -661
323 -1181 840 -1509 1497 -380 762 -447 1660 -185 2470 330 1017 1116 1805
2129 2131 281 91 457 123 850 156 83 7 404 -4 535 -19z"/>
<path d="M3392 5765 c-381 -350 -802 -506 -1454 -541 l-128 -6 0 -1367 c0
-1511 -3 -1427 65 -1563 60 -118 113 -189 244 -319 144 -144 314 -274 534
-409 177 -109 492 -273 701 -365 l146 -64 146 64 c209 92 524 256 701 365 220
135 390 265 534 409 131 130 184 201 244 319 68 136 65 52 65 1563 l0 1367
-127 6 c-206 11 -329 25 -484 57 -396 79 -690 226 -971 484 -56 52 -105 95
-108 95 -3 0 -52 -43 -108 -95z m26 -1344 l-3 -369 -262 207 c-144 114 -265
209 -268 213 -4 4 114 243 262 531 l268 524 3 -368 c1 -203 1 -535 0 -738z
m437 581 c147 -288 263 -527 259 -532 -5 -4 -99 -79 -209 -165 -110 -87 -228
-180 -262 -207 l-63 -50 0 743 c0 408 2 740 3 738 2 -2 124 -240 272 -527z
m-899 -38 c-107 -208 -200 -379 -206 -379 -5 0 -141 103 -301 229 -193 152
-286 232 -277 236 7 4 45 11 83 14 244 24 566 118 785 230 58 29 106 52 108
51 1 -1 -85 -172 -192 -381z m1214 238 c189 -68 415 -122 575 -138 39 -3 76
-10 83 -14 9 -4 -84 -84 -277 -236 -160 -126 -296 -229 -301 -229 -8 0 -400
746 -400 761 0 2 53 -23 118 -55 64 -33 155 -72 202 -89z m-1817 -506 c180
-142 327 -260 327 -263 0 -6 -504 -993 -617 -1208 l-63 -120 0 934 c0 745 3
932 13 924 6 -5 159 -125 340 -267z m2645 -1121 l-3 -465 -339 661 c-287 560
-337 663 -325 674 8 8 160 129 339 270 l325 256 3 -466 c1 -256 1 -674 0 -930z
m-1903 536 c149 -117 271 -216 273 -220 2 -6 -1275 -1020 -1317 -1046 -7 -4
73 160 178 366 105 206 278 543 384 751 117 229 196 373 202 369 5 -5 132
-104 280 -220z m1470 -496 c405 -791 399 -778 383 -769 -41 25 -1318 1039
-1316 1045 2 4 129 107 283 228 l280 221 24 -48 c13 -26 168 -330 346 -677z
m-1145 -1070 l0 -1174 -47 20 c-90 38 -378 185 -498 254 -148 85 -333 206
-445 293 -112 87 -276 251 -329 330 -74 110 -94 165 -95 260 l-1 84 700 553
c385 305 703 554 708 554 4 1 7 -528 7 -1174z m876 618 l706 -556 -4 -81 c-8
-138 -76 -255 -242 -421 -209 -208 -504 -405 -916 -611 -91 -46 -186 -92 -212
-103 l-48 -20 0 1174 c0 646 2 1175 5 1175 3 0 323 -251 711 -557z"/>
</g>
</svg>
