<svg fill="none" xmlns="http://www.w3.org/2000/svg" viewBox="0 0 79 37"><path opacity=".9" d="m74.84 36.261-18.848-.321a2.698 2.698 0 0 1-2.652-2.743 2.697 2.697 0 0 1 2.742-2.65l12.064.207C58.95 18.77 49.597 12.236 41.038 8.834c-9.713-3.856-18.509-3.703-25.044-2.53-6.527 1.172-10.752 3.39-11.09 3.575l-.017.007v.002A2.699 2.699 0 0 1 1.22 8.843a2.697 2.697 0 0 1 1.042-3.667c.176-.094 4.731-2.618 12.08-4.05C21.68-.304 31.86-.617 43.03 3.82c9.506 3.77 19.647 10.97 29.316 23.545l.311-12.27a2.698 2.698 0 0 1 5.39.135l-.465 18.403a2.698 2.698 0 0 1-2.742 2.628Z" fill="#EDF3F8"/></svg>