<svg fill="none" xmlns="http://www.w3.org/2000/svg" viewBox="0 0 79 37"><path opacity=".9" d="m74.84.705-18.848.32a2.698 2.698 0 0 0-2.652 2.743 2.697 2.697 0 0 0 2.742 2.65l12.064-.206C58.95 18.196 49.597 24.73 41.038 28.132c-9.713 3.855-18.509 3.703-25.044 2.53-6.527-1.173-10.752-3.39-11.09-3.575l-.017-.007v-.002a2.699 2.699 0 0 0-3.667 1.044 2.697 2.697 0 0 0 1.042 3.668c.176.094 4.731 2.618 12.08 4.05 7.338 1.428 17.519 1.741 28.688-2.695 9.506-3.77 19.647-10.97 29.316-23.544l.311 12.27a2.697 2.697 0 0 0 5.39-.135l-.465-18.403A2.698 2.698 0 0 0 74.84.705Z" fill="#EDF3F8"/></svg>