<svg fill="none" xmlns="http://www.w3.org/2000/svg" viewBox="0 0 882 366"><g clip-path="url(#a)" fill="currentColor"><path d="M881.666 170.414c0-68.523-55.666-126.387-121.77-126.387-12.922 0-41.252 11.166-71.571 22.84-48.211 18.781-107.853 42.13-155.07 42.13-69.086 0-130.716-27.41-177.933-78.675-8.45-9.136-16.402-19.288-23.857-29.947 83.499 177.653 238.57 295.919 430.419 319.775 67.098-31.978 119.782-80.198 119.782-149.736Z"/><path d="M720.602 328.76c-55.996 19.861-118.157 31.778-169.016 36.743h-.514c-8.733.497-16.953.497-24.145.497C261.844 366 45.565 190.722-13-70.954c40.584-24.827 114.047-53.626 241.452-64.053h.513c4.624-.496 9.247-.496 13.357-.993 57.538 247.773 238.883 422.554 478.28 464.76Z"/></g><defs><clipPath id="a"><path fill="currentColor" d="M0 0h882v366H0z"/></clipPath></defs></svg>
