<svg fill="none" xmlns="http://www.w3.org/2000/svg" viewBox="0 0 140 44"><path d="M42.4 10.795v-.036c0-2.914 2.244-5.19 5.274-5.19 2.044 0 3.358.856 4.252 2.076l-2.08 1.62c-.566-.71-1.223-1.165-2.19-1.165-1.406 0-2.391 1.184-2.391 2.64v.037c0 1.493.985 2.677 2.39 2.677 1.041 0 1.661-.492 2.264-1.22l2.08 1.475c-.949 1.293-2.208 2.258-4.435 2.258-2.865-.018-5.165-2.185-5.165-5.172ZM52.8 5.57h2.618v7.873H60v2.524h-7.2V5.569ZM64.757 5.57h2.486L71.2 15.966h-2.773l-.677-1.846h-3.585l-.66 1.846H60.8l3.957-10.398Zm2.266 6.328L65.99 8.96l-1.048 2.938h2.08ZM76 5.57h-3.2v10.397H76V5.569ZM77.568 5.57h2.872l2.319 4.022 2.337-4.023h2.872v10.398h-2.694V9.99l-2.515 4.08h-.054l-2.48-4.042v5.939h-2.657V5.569ZM89.569 14.319l1.416-1.849c.9.787 1.9 1.208 2.967 1.208.683 0 1.05-.256 1.05-.695v-.037c0-.421-.3-.64-1.533-.97-1.95-.494-3.45-1.098-3.45-3.149v-.036c0-1.867 1.35-3.222 3.533-3.222 1.55 0 2.767.458 3.767 1.336l-1.267 1.959c-.833-.64-1.75-.988-2.567-.988-.616 0-.916.292-.916.64v.037c0 .457.316.659 1.583.97 2.1.494 3.417 1.245 3.417 3.13v.037c0 2.05-1.484 3.276-3.7 3.276-1.65.019-3.183-.549-4.3-1.647ZM42.4 22.793v-.037c0-2.913 2.244-5.19 5.274-5.19 2.044 0 3.358.856 4.252 2.076l-2.08 1.621c-.566-.71-1.223-1.165-2.19-1.165-1.406 0-2.391 1.183-2.391 2.64v.036c0 1.494.985 2.677 2.39 2.677 1.041 0 1.661-.491 2.264-1.22l2.08 1.475c-.949 1.293-2.208 2.258-4.435 2.258-2.865 0-5.165-2.185-5.165-5.171ZM52.8 22.793v-.037c0-2.877 2.235-5.19 5.209-5.19 2.973 0 5.19 2.295 5.19 5.172v.036c0 2.877-2.234 5.19-5.208 5.19S52.8 25.67 52.8 22.793Zm7.672 0v-.037c0-1.438-1.003-2.695-2.481-2.695-1.46 0-2.446 1.22-2.446 2.677v.036c0 1.439 1.003 2.695 2.463 2.695 1.496 0 2.464-1.238 2.464-2.676ZM64 17.566h2.412l3.84 5.493v-5.493H72.8v10.398h-2.26l-3.975-5.7v5.7H64V17.566ZM74.4 26.316l1.416-1.849c.9.788 1.9 1.209 2.967 1.209.683 0 1.05-.257 1.05-.696v-.037c0-.42-.3-.64-1.533-.97-1.95-.494-3.45-1.098-3.45-3.148v-.037c0-1.867 1.35-3.222 3.533-3.222 1.55 0 2.767.458 3.767 1.337l-1.267 1.958c-.833-.64-1.75-.988-2.566-.988-.617 0-.917.293-.917.64v.037c0 .458.316.66 1.583.97 2.1.495 3.417 1.245 3.417 3.13v.037c0 2.05-1.484 3.277-3.7 3.277-1.633.018-3.184-.531-4.3-1.648ZM84 22.793v-.037c0-2.877 2.234-5.19 5.208-5.19s5.191 2.295 5.191 5.172v.036c0 2.877-2.234 5.19-5.209 5.19-2.991 0-5.19-2.294-5.19-5.171Zm7.654 0v-.037c0-1.438-1.003-2.695-2.481-2.695-1.46 0-2.446 1.22-2.446 2.677v.036c0 1.439 1.003 2.695 2.463 2.695 1.496 0 2.464-1.238 2.464-2.676ZM96 17.566h4.513c1.464 0 2.475.416 3.119 1.135.558.586.854 1.399.854 2.42v.037c0 1.588-.784 2.628-1.969 3.195l2.283 3.611h-3.067l-1.917-3.138H98.65v3.138H96V17.566Zm4.391 4.991c.906 0 1.412-.472 1.412-1.229v-.037c0-.813-.54-1.23-1.429-1.23h-1.743v2.496h1.76ZM107.527 20.104H104.8v-2.538h8v2.538h-2.745v7.86h-2.528v-7.86ZM117.599 17.566h-3.2v10.398h3.2V17.566ZM119.199 23.295v-5.729h2.658v5.674c0 1.469.69 2.176 1.742 2.176 1.053 0 1.743-.67 1.743-2.102v-5.748h2.657v5.655c0 3.292-1.742 4.743-4.434 4.743-2.675 0-4.366-1.47-4.366-4.669ZM129.6 17.566h2.854l2.337 4.035 2.337-4.035H140v10.398h-2.712v-5.966l-2.497 4.072h-.054l-2.479-4.053v5.947H129.6V17.566ZM42.4 35.18v-.017c0-2.088 1.567-4 3.973-4 1.313 0 2.133.369 2.935 1.018l-.383.438c-.638-.526-1.367-.93-2.588-.93-1.95 0-3.318 1.597-3.318 3.456v.018c0 2 1.294 3.49 3.445 3.49 1.021 0 1.969-.403 2.57-.877V35.55h-2.697v-.527h3.262v2.982c-.729.614-1.859 1.158-3.153 1.158-2.534 0-4.047-1.807-4.047-3.982ZM52 33.667h.57v1.558c.46-.976 1.453-1.695 2.63-1.66v.581h-.055c-1.361 0-2.556.959-2.556 2.756v2.26h-.57v-5.495H52ZM55.2 36.379v-.017c0-1.5 1.184-2.799 2.808-2.799a2.769 2.769 0 0 1 2.792 2.783v.016c0 1.5-1.184 2.8-2.809 2.8-1.624 0-2.791-1.283-2.791-2.783Zm5.025 0v-.017c0-1.3-.982-2.316-2.25-2.316-1.286 0-2.217 1.033-2.217 2.3v.016c0 1.3.981 2.316 2.233 2.316 1.303 0 2.234-1.05 2.234-2.299ZM62.493 36.905v-3.342h.539v3.258c0 1.12.644 1.866 1.774 1.866 1.096 0 1.948-.815 1.948-1.951V33.58h.539v5.446h-.54v-1.018c-.365.645-.99 1.154-2.017 1.154-1.408 0-2.243-.95-2.243-2.257ZM68.892 33.694h.545v1.342c.491-.783 1.21-1.473 2.317-1.473 1.37 0 2.738 1.156 2.738 3.113v.02c0 1.957-1.386 3.131-2.738 3.131-1.124 0-1.86-.69-2.317-1.435v3.17h-.545v-7.868Zm5.039 3.02v-.019c0-1.585-1.036-2.591-2.212-2.591-1.176 0-2.3 1.044-2.3 2.572v.02c0 1.547 1.124 2.572 2.3 2.572 1.229 0 2.212-.95 2.212-2.554ZM33.077 35.917c0-2.48-2.008-4.575-4.392-4.575-.466 0-1.488.404-2.582.827-1.739.68-3.89 1.525-5.593 1.525-2.492 0-4.715-.992-6.418-2.848-.305-.33-.592-.698-.86-1.084 3.011 6.43 8.605 10.711 15.525 11.574 2.42-1.157 4.32-2.902 4.32-5.42Z" fill="currentColor"/><path d="M27.287 41.64c-2.02.72-4.262 1.152-6.096 1.332h-.019c-.315.018-.611.018-.87.018-9.563 0-17.364-6.35-19.476-15.832 1.464-.899 4.114-1.943 8.709-2.32h.019c.166-.018.333-.018.481-.036 2.076 8.977 8.617 15.31 17.252 16.839ZM19.914 0c-.288 0-.576 0-.9.019C13.847 4.36 10.75 11.28 10.75 18.553c0 .668.036 1.355.09 2.115.162-2.764.99-5.287 2.34-7.198 1.747-2.45 4.25-3.748 7.274-3.748 1.945 0 3.584.65 5.042 1.224 1.278.501 2.467.984 3.71.984 2.394 0 3.87-2.969 3.87-5.102C33.094 1.67 24.218 0 19.914 0Z" fill="currentColor"/><path d="M8.715 18.142c0 .787.036 1.61.145 2.526-4.803-.384-7.44-1.574-8.86-2.581.637-4.76 2.73-9.172 5.895-12.485C8.842 2.545 12.499.622 16.538 0c-4.912 4.43-7.823 11.13-7.823 18.142Z" fill="currentColor"/></svg>
