<svg xmlns="http://www.w3.org/2000/svg" fill="none" viewBox="0 0 188 58"><path d="M56.936 14.496v-.048c0-3.913 3.015-6.97 7.083-6.97 2.745 0 4.51 1.15 5.71 2.788l-2.793 2.177c-.76-.954-1.642-1.566-2.941-1.566-1.887 0-3.21 1.59-3.21 3.546v.05c0 2.004 1.323 3.594 3.21 3.594 1.397 0 2.23-.66 3.039-1.639l2.794 1.981c-1.275 1.736-2.966 3.032-5.956 3.032-3.848-.024-6.936-2.934-6.936-6.944ZM70.902 7.479h3.516v10.573h6.153v3.39h-9.669V7.478ZM86.96 7.479h3.337l5.314 13.962h-3.724l-.908-2.479h-4.815l-.885 2.48h-3.634L86.96 7.478Zm3.042 8.498-1.385-3.945-1.408 3.945h2.793ZM102.056 7.479h-4.297V21.44h4.297V7.48ZM104.163 7.479h3.856l3.114 5.401 3.139-5.401h3.856V21.44h-3.617v-8.026l-3.378 5.478h-.071l-3.33-5.427v7.975h-3.569V7.48ZM120.278 19.228l1.903-2.482c1.208 1.057 2.551 1.622 3.983 1.622.918 0 1.41-.344 1.41-.934v-.05c0-.565-.403-.86-2.059-1.302-2.618-.664-4.633-1.475-4.633-4.228v-.05c0-2.506 1.813-4.325 4.745-4.325 2.082 0 3.715.614 5.058 1.794l-1.701 2.63c-1.119-.86-2.35-1.327-3.446-1.327-.828 0-1.231.393-1.231.86v.05c0 .614.425.884 2.126 1.302 2.82.664 4.588 1.672 4.588 4.203v.05c0 2.753-1.992 4.4-4.969 4.4-2.215.024-4.274-.738-5.774-2.213ZM56.936 30.607v-.049c0-3.912 3.015-6.969 7.083-6.969 2.745 0 4.51 1.15 5.71 2.788l-2.793 2.176c-.76-.954-1.642-1.565-2.941-1.565-1.887 0-3.21 1.59-3.21 3.546v.049c0 2.005 1.323 3.594 3.21 3.594 1.397 0 2.23-.66 3.039-1.638l2.794 1.98c-1.275 1.737-2.966 3.033-5.956 3.033-3.848 0-6.936-2.934-6.936-6.945ZM70.902 30.607v-.049c0-3.863 3.001-6.969 6.995-6.969s6.971 3.081 6.971 6.945v.049c0 3.864-3.001 6.969-6.995 6.969-3.993 0-6.97-3.081-6.97-6.945Zm10.303 0v-.049c0-1.931-1.347-3.619-3.332-3.619-1.96 0-3.284 1.639-3.284 3.595v.049c0 1.932 1.347 3.619 3.308 3.619 2.009 0 3.308-1.663 3.308-3.595ZM85.942 23.59h3.24l5.155 7.375v-7.376h3.422v13.963h-3.034l-5.338-7.655v7.655h-3.445V23.589ZM99.908 35.34l1.903-2.484c1.208 1.057 2.551 1.623 3.984 1.623.917 0 1.41-.344 1.41-.934v-.05c0-.565-.403-.86-2.059-1.302-2.619-.664-4.633-1.475-4.633-4.228v-.05c0-2.507 1.813-4.326 4.744-4.326 2.082 0 3.716.615 5.059 1.795l-1.701 2.63c-1.119-.86-2.35-1.327-3.447-1.327-.828 0-1.231.393-1.231.86v.05c0 .614.425.884 2.126 1.302 2.82.664 4.588 1.671 4.588 4.203v.05c0 2.752-1.992 4.4-4.968 4.4-2.194.024-4.275-.713-5.775-2.213ZM112.799 30.607v-.049c0-3.863 3.001-6.969 6.995-6.969 3.993 0 6.971 3.081 6.971 6.945v.049c0 3.863-3.001 6.969-6.995 6.969-4.017 0-6.971-3.081-6.971-6.945Zm10.279 0v-.049c0-1.931-1.347-3.619-3.331-3.619-1.962 0-3.285 1.639-3.285 3.595v.049c0 1.932 1.347 3.619 3.308 3.619 2.009 0 3.308-1.663 3.308-3.595ZM128.914 23.59h6.061c1.966 0 3.323.558 4.189 1.523.748.787 1.146 1.878 1.146 3.25v.05c0 2.132-1.053 3.529-2.644 4.29l3.065 4.849h-4.118l-2.574-4.214h-1.568v4.214h-3.557V23.589Zm5.897 6.701c1.217 0 1.896-.634 1.896-1.65v-.05c0-1.092-.726-1.65-1.919-1.65h-2.34v3.35h2.363ZM144.394 26.997h-3.663V23.59h10.743v3.408h-3.685v10.555h-3.395V26.997ZM157.919 23.59h-4.297v13.962h4.297V23.589ZM160.068 31.282V23.59h3.568v7.619c0 1.973.927 2.922 2.34 2.922 1.414 0 2.341-.9 2.341-2.823V23.59h3.568v7.594c0 4.42-2.34 6.369-5.955 6.369-3.592 0-5.862-1.973-5.862-6.27ZM174.034 23.59h3.833l3.138 5.417 3.138-5.418H188v13.963h-3.642v-8.011l-3.353 5.468h-.072l-3.33-5.443v7.986h-3.569V23.589Z" fill="#1E1D1F"/><path d="M56.936 47.242v-.024c0-2.803 2.105-5.37 5.336-5.37 1.763 0 2.864.495 3.941 1.366l-.514.59c-.856-.708-1.836-1.25-3.476-1.25-2.619 0-4.454 2.144-4.454 4.64v.024c0 2.685 1.737 4.688 4.626 4.688 1.37 0 2.643-.542 3.451-1.178v-2.991h-3.623v-.707h4.382v4.004c-.98.825-2.497 1.555-4.235 1.555-3.402 0-5.434-2.426-5.434-5.347ZM69.829 45.21h.765v2.092c.618-1.31 1.951-2.276 3.532-2.23v.782h-.074c-1.828 0-3.433 1.287-3.433 3.7v3.035h-.766v-7.38h-.024ZM74.126 48.852v-.022c0-2.014 1.59-3.76 3.77-3.76a3.718 3.718 0 0 1 3.75 3.737v.023c0 2.014-1.59 3.759-3.772 3.759-2.18 0-3.748-1.723-3.748-3.737Zm6.747 0v-.022c0-1.746-1.318-3.11-3.022-3.11-1.726 0-2.976 1.387-2.976 3.087v.023c0 1.745 1.318 3.11 3 3.11 1.749 0 2.998-1.41 2.998-3.088ZM83.919 49.559V45.07h.724v4.375c0 1.503.864 2.506 2.382 2.506 1.471 0 2.616-1.094 2.616-2.62v-4.238h.724v7.313h-.724V51.04c-.49.866-1.331 1.55-2.71 1.55-1.891 0-3.012-1.276-3.012-3.03ZM92.513 45.246h.73v1.802c.66-1.051 1.627-1.978 3.112-1.978 1.839 0 3.678 1.553 3.678 4.181v.025c0 2.63-1.863 4.206-3.678 4.206-1.508 0-2.499-.926-3.112-1.927v4.256h-.73V45.246Zm6.765 4.055v-.025c0-2.128-1.39-3.48-2.97-3.48-1.58 0-3.088 1.402-3.088 3.455v.025c0 2.078 1.509 3.455 3.088 3.455 1.65 0 2.97-1.276 2.97-3.43ZM44.418 48.231c0-3.33-2.696-6.143-5.898-6.143-.626 0-1.998.543-3.467 1.11-2.335.913-5.224 2.048-7.511 2.048-3.346 0-6.332-1.332-8.619-3.824a13.76 13.76 0 0 1-1.155-1.456c4.044 8.635 11.555 14.383 20.848 15.543 3.25-1.554 5.802-3.898 5.802-7.278Z" fill="#0051A4"/><path d="M36.642 55.917c-2.712.967-5.723 1.547-8.186 1.788h-.025c-.423.024-.821.024-1.17.024-12.84 0-23.315-8.527-26.152-21.259 1.966-1.208 5.524-2.609 11.695-3.116h.025c.224-.024.448-.024.647-.049 2.787 12.055 11.57 20.559 23.166 22.612Z" fill="url(#a)"/><path d="M26.742 0c-.387 0-.774 0-1.209.025-6.939 5.83-11.098 15.123-11.098 24.89 0 .896.049 1.818.121 2.84.218-3.713 1.33-7.101 3.143-9.667 2.346-3.289 5.706-5.033 9.768-5.033 2.612 0 4.812.872 6.77 1.644 1.717.673 3.313 1.32 4.981 1.32 3.216 0 5.199-3.985 5.199-6.85C44.44 2.241 32.52 0 26.742 0Z" fill="#B0A79E"/><path d="M11.703 24.362c0 1.057.049 2.163.195 3.393C5.448 27.238 1.906 25.64 0 24.288c.855-6.391 3.665-12.316 7.916-16.766C11.874 3.417 16.785.836 22.209 0c-6.597 5.95-10.506 14.947-10.506 24.362Z" fill="#7B6A63"/><defs><linearGradient id="a" x1="26.157" y1="57.729" x2="1.04" y2="36.914" gradientUnits="userSpaceOnUse"><stop stop-color="#1F1554"/><stop offset="1" stop-color="#034688"/></linearGradient></defs></svg>
