<svg width="75" height="75" viewBox="0 0 75 75" fill="none" xmlns="http://www.w3.org/2000/svg">
<path d="M37.5 73.913C57.6104 73.913 73.9131 57.6104 73.9131 37.5C73.9131 17.3896 57.6104 1.08694 37.5 1.08694C17.3897 1.08694 1.08698 17.3896 1.08698 37.5C1.08698 57.6104 17.3897 73.913 37.5 73.913Z" stroke="black" stroke-width="2.08696"/>
<path d="M21.1957 20.4851L53.8044 46.2098" stroke="black" stroke-width="1.56522" stroke-linecap="square"/>
<path d="M21.1957 46.2098L53.8044 20.4851" stroke="black" stroke-width="1.56522" stroke-linecap="square"/>
<path d="M53.8044 44.0359L38.9493 15.0504" stroke="black" stroke-width="1.56522" stroke-linecap="square"/>
<path d="M21.1957 44.0359L36.0508 15.0504" stroke="black" stroke-width="1.56522" stroke-linecap="square"/>
<path d="M37.5 14.5732V61.6083" stroke="black" stroke-width="1.56522" stroke-linecap="square"/>
<path d="M37.5 13.5315C37.236 13.7867 36.9953 14.0129 36.7453 14.2384C36.0562 14.8604 35.3552 15.4235 34.5813 15.9581C31.0161 18.4208 26.4588 19.8904 20.3804 20.0343V47.7007C20.3804 50.7666 23.5814 54.1597 28.9633 57.4633C30.9089 58.6576 32.999 59.7541 35.0896 60.7265C35.8215 61.0669 36.5008 61.3673 37.1095 61.6246C37.2506 61.6842 37.381 61.7386 37.5 61.7876C37.619 61.7386 37.7494 61.6842 37.8905 61.6246C38.4992 61.3673 39.1784 61.0669 39.9104 60.7265C42.001 59.7541 44.0911 58.6576 46.0367 57.4633C51.4186 54.1597 54.6196 50.7666 54.6196 47.7007V20.0343C48.5412 19.8904 43.9838 18.4208 40.4187 15.9581C39.6448 15.4235 38.9438 14.8604 38.2547 14.2384C38.0047 14.0129 37.764 13.7867 37.5 13.5315Z" stroke="black" stroke-width="1.91304"/>
</svg>
