<svg width="41" height="41" viewBox="0 0 41 41" fill="none" xmlns="http://www.w3.org/2000/svg">
<g id="Out of Hours">
<mask id="mask0_782_10998" style="mask-type:alpha" maskUnits="userSpaceOnUse" x="0" y="0" width="41" height="41">
<circle id="Ellipse 4" cx="20.2285" cy="20.2905" r="20" fill="#D9D9D9"/>
</mask>
<g mask="url(#mask0_782_10998)">
<path id="Ellipse 5" d="M40.2285 20.2905C40.2285 31.3362 31.2742 40.2905 20.2285 40.2905C9.18282 40.2905 0.228516 31.3362 0.228516 20.2905C0.228516 9.24483 9.18282 0.290527 20.2285 0.290527C31.2742 0.290527 40.2285 9.24483 40.2285 20.2905Z" fill="#3B82F6"/>
<g id="Group">
<path id="Vector" d="M15.1393 20.4926L15.1086 27.2168H20.0213V23.6858H21.8328V27.2475H26.5613V20.5233L20.8196 15.8256L15.1393 20.4926ZM25.8551 26.5413H22.5083V22.9489L19.4072 22.9796H19.3458V26.572H15.7841V20.861L20.8196 16.7467L25.8551 20.861V26.5413Z" fill="white"/>
<path id="Vector_2" d="M14.034 16.9308L13.5121 16.4088L13.6349 15.7026L12.9594 16.0404L12.3146 15.7026L12.4374 16.4088L11.9155 16.9308L12.6524 17.0536L12.9594 17.6984L13.2972 17.0536L14.034 16.9308Z" fill="white"/>
<path id="Vector_3" d="M18.4555 12.6937L18.8546 13.5227L19.2538 12.6937L20.1442 12.5708L19.4994 11.9261L19.6529 11.0356L18.8546 11.4655L18.0563 11.0356L18.2099 11.9261L17.5344 12.5708L18.4555 12.6937Z" fill="white"/>
<path id="Vector_4" d="M30.1844 17.3607L30.3072 16.6238L29.6624 16.9615L28.9869 16.6238L29.1097 17.3607L28.5878 17.8519L29.3247 17.9748L29.6624 18.6195L29.9695 17.9748L30.7064 17.8519L30.1844 17.3607Z" fill="white"/>
<path id="Vector_5" d="M28.1272 14.8123C28.1272 13.0315 26.6841 11.5884 24.9033 11.5884C23.3067 11.5884 21.9864 12.7551 21.7407 14.2596L20.8503 13.5534L20.8196 13.5227L17.7185 16.0712L17.6878 14.5667H15.1087V18.2205L13.2971 19.725L13.727 20.2469L15.7842 18.5582L15.8149 18.5275V15.2729H17.043L17.0737 17.545L20.8503 14.4132L28.1272 20.2469L28.1886 20.2776L28.6185 19.7557L26.1928 17.7906C27.3289 17.2993 28.1272 16.1326 28.1272 14.8123ZM24.934 12.2639C26.3157 12.2639 27.4517 13.3999 27.4517 14.7816C27.4517 15.9791 26.6227 16.9923 25.4866 17.2379L22.3855 14.7509C22.4162 13.3999 23.5523 12.2639 24.934 12.2639Z" fill="white"/>
</g>
<path id="Vector 1" d="M-7.90481 27.2754L26.9932 48.8333L37.4922 34.2998C37.4922 34.2998 28.7172 36.1357 22.3583 35.3684C17.0046 34.7223 12.165 31.4547 9.03273 26.1225C5.89037 20.7732 6.77007 13.813 10.2693 9.04778C14.4011 3.42129 21.5933 0.416914 21.5933 0.416914L13.7355 -7.75598L-7.90481 27.2754Z" fill="url(#paint0_linear_782_10998)"/>
</g>
</g>
<defs>
<linearGradient id="paint0_linear_782_10998" x1="32.0312" y1="63.884" x2="6.69941" y2="4.66825" gradientUnits="userSpaceOnUse">
<stop stop-color="#1D4ED8"/>
<stop offset="1" stop-color="#2563EB" stop-opacity="0"/>
</linearGradient>
</defs>
</svg>
