<svg width="41" height="40" viewBox="0 0 41 40" fill="none" xmlns="http://www.w3.org/2000/svg">
<g id="Repair &#38; Restoration">
<mask id="mask0_782_11012" style="mask-type:alpha" maskUnits="userSpaceOnUse" x="0" y="0" width="41" height="40">
<circle id="Ellipse 4" cx="20.4297" cy="20" r="20" fill="#D9D9D9"/>
</mask>
<g mask="url(#mask0_782_11012)">
<path id="Ellipse 5" d="M40.4297 20C40.4297 31.0457 31.4754 40 20.4297 40C9.38399 40 0.429688 31.0457 0.429688 20C0.429688 8.95431 9.38399 0 20.4297 0C31.4754 0 40.4297 8.95431 40.4297 20Z" fill="#6366F1"/>
<g id="Group">
<path id="Vector" d="M13.3433 19.028H16.4287V23.8664H17.2V18.7825C17.2 18.467 16.9546 18.2216 16.639 18.2216H13.0979C12.7823 18.2216 12.572 18.467 12.572 18.7825V23.8664H13.3433V19.028Z" fill="white"/>
<path id="Vector_2" d="M18.8832 16.6789H21.9685V23.8665H22.7399V16.4335C22.7399 16.118 22.4944 15.9076 22.214 15.9076H18.6377C18.3222 15.9076 18.1118 16.153 18.1118 16.4335V23.8665H18.8832V16.6789Z" fill="white"/>
<path id="Vector_3" d="M24.4226 12.9974H27.5079V23.8664H28.2793V12.752C28.2793 12.4365 28.0338 12.191 27.7183 12.191H24.1771C23.8616 12.191 23.6161 12.4365 23.6161 12.752V23.8664H24.4226V12.9974Z" fill="white"/>
<path id="Vector_4" d="M28.8754 24.9883H12.0461C11.8357 24.9883 11.6604 25.1636 11.6604 25.374C11.6604 25.5843 11.8357 25.7596 12.0461 25.7596H28.9104C29.1208 25.7596 29.2961 25.5843 29.2961 25.374C29.2961 25.1636 29.0857 24.9883 28.8754 24.9883Z" fill="white"/>
</g>
<path id="Vector 1" d="M-7.70363 26.9849L27.1943 48.5427L37.6934 34.0092C37.6934 34.0092 28.9184 35.8452 22.5595 35.0779C17.2058 34.4318 12.3662 31.1642 9.2339 25.832C6.09154 20.4827 6.97125 13.5225 10.4705 8.75726C14.6023 3.13076 21.7945 0.126387 21.7945 0.126387L13.9366 -8.04651L-7.70363 26.9849Z" fill="url(#paint0_linear_782_11012)"/>
</g>
</g>
<defs>
<linearGradient id="paint0_linear_782_11012" x1="32.2324" y1="63.5935" x2="6.90058" y2="4.37772" gradientUnits="userSpaceOnUse">
<stop stop-color="#4338CA"/>
<stop offset="1" stop-color="#4338CA" stop-opacity="0"/>
</linearGradient>
</defs>
</svg>
