<svg width="41" height="41" viewBox="0 0 41 41" fill="none" xmlns="http://www.w3.org/2000/svg">
<g id="Investigation Services">
<mask id="mask0_970_9021" style="mask-type:alpha" maskUnits="userSpaceOnUse" x="0" y="0" width="41" height="41">
<circle id="Ellipse 4" cx="20.4297" cy="20.1624" r="20" fill="#D9D9D9"/>
</mask>
<g mask="url(#mask0_970_9021)">
<path id="Ellipse 5" d="M40.4297 20.1624C40.4297 31.208 31.4754 40.1624 20.4297 40.1624C9.38399 40.1624 0.429688 31.208 0.429688 20.1624C0.429688 9.11666 9.38399 0.162354 20.4297 0.162354C31.4754 0.162354 40.4297 9.11666 40.4297 20.1624Z" fill="#7DD3FC"/>
<g id="Group 1">
<g id="Group">
<path id="Vector" d="M26.3823 13.9806C25.4729 13.0398 24.2499 12.5381 22.9329 12.5381C20.236 12.5381 18.0409 14.7332 18.0409 17.4614C18.0409 18.7785 18.5426 20.0015 19.4834 20.9422C20.3928 21.883 21.6158 22.3847 22.9329 22.3847C25.6297 22.3847 27.8248 20.1896 27.8248 17.4614C27.7935 16.1443 27.2917 14.89 26.3823 13.9806ZM22.9329 13.2907C24.0304 13.2907 25.0652 13.7297 25.8492 14.5137C26.6332 15.2977 27.0722 16.3325 27.0722 17.4614C27.0722 19.7506 25.222 21.6321 22.9329 21.6321C21.8353 21.6321 20.8005 21.1931 20.0165 20.4091C19.2325 19.6252 18.7935 18.5903 18.7935 17.4614C18.7935 15.1722 20.6437 13.2907 22.9329 13.2907Z" fill="white"/>
<path id="Vector_2" d="M27.5113 12.8204C26.2883 11.5974 24.6576 10.9075 22.9329 10.9075C21.2082 10.9075 19.5775 11.5974 18.3545 12.8204C16.1594 15.0155 15.8458 18.4336 17.5392 21.0363L16.8493 21.7262C16.5044 21.6635 16.1594 21.7576 15.9086 22.0085L12.2396 25.6774C11.5497 26.3673 11.5497 27.4962 12.2396 28.1861C12.5845 28.5311 13.0236 28.6879 13.4939 28.6879C13.9643 28.6879 14.4033 28.4997 14.7483 28.1861L18.3859 24.5172C18.6368 24.2663 18.7308 23.9213 18.6681 23.5764L19.358 22.8865C20.4242 23.6077 21.6472 23.9841 22.9329 23.9841C24.6576 23.9841 26.2883 23.2942 27.5113 22.0712C30.02 19.4998 30.02 15.3604 27.5113 12.8204ZM16.6298 22.4475C16.6925 22.4475 16.7866 22.4788 16.818 22.5416L17.8528 23.5764C17.9469 23.6705 17.9469 23.8586 17.8528 23.9841L14.2152 27.653C13.8389 28.0293 13.1803 28.0293 12.7727 27.653C12.365 27.2454 12.365 26.6182 12.7727 26.2105L16.4417 22.5416C16.5044 22.4788 16.5671 22.4475 16.6298 22.4475ZM17.9782 21.6635C18.1037 21.8203 18.2291 21.9457 18.3545 22.0712C18.48 22.1966 18.6054 22.322 18.7622 22.4475L18.2605 22.9492L17.4765 22.1652L17.9782 21.6635ZM22.9329 23.2001C21.3963 23.2001 19.9538 22.6043 18.8876 21.5067C16.6612 19.2489 16.6612 15.6113 18.8876 13.3535C19.9852 12.2559 21.3963 11.6601 22.9329 11.6601C24.4695 11.6601 25.912 12.2559 26.9782 13.3535C29.2046 15.6113 29.2046 19.2489 26.9782 21.5067C25.8806 22.6043 24.4695 23.2001 22.9329 23.2001Z" fill="white"/>
</g>
<g id="Group_2">
<path id="Vector_3" d="M21.0833 16.2385C21.0833 16.019 21.146 15.7995 21.3028 15.5486C21.4596 15.2977 21.6477 15.141 21.9299 14.9842C22.2122 14.8274 22.5258 14.7646 22.9021 14.7646C23.247 14.7646 23.5292 14.8274 23.8115 14.9528C24.0623 15.0782 24.2818 15.235 24.4073 15.4545C24.5641 15.6741 24.6268 15.8936 24.6268 16.1444C24.6268 16.3326 24.5954 16.5207 24.5014 16.6775C24.4073 16.8343 24.3132 16.9598 24.2191 17.0538C24.125 17.1479 23.9055 17.3361 23.6233 17.6183C23.5292 17.681 23.4665 17.7437 23.4352 17.8064C23.3724 17.8692 23.3411 17.9005 23.3411 17.9632C23.3097 17.9946 23.3097 18.0573 23.2784 18.0887C23.2784 18.12 23.247 18.2141 23.2156 18.3395C23.1843 18.5904 23.0275 18.7158 22.808 18.7158C22.6825 18.7158 22.5885 18.6845 22.4944 18.5904C22.4003 18.4963 22.369 18.4023 22.369 18.2455C22.369 18.0573 22.4003 17.8692 22.463 17.7437C22.5258 17.5869 22.6198 17.4615 22.7139 17.3674C22.808 17.2733 22.9648 17.1166 23.1216 16.9911C23.2784 16.8657 23.3724 16.7716 23.4352 16.7089C23.4979 16.6462 23.5606 16.5835 23.5919 16.4894C23.6233 16.3953 23.6547 16.3326 23.6547 16.2071C23.6547 16.019 23.5919 15.8622 23.4352 15.7368C23.3097 15.6113 23.1216 15.5486 22.9021 15.5486C22.6512 15.5486 22.463 15.6113 22.3376 15.7368C22.2122 15.8622 22.1181 16.0504 22.024 16.3012C21.9299 16.5521 21.8045 16.7089 21.585 16.7089C21.4596 16.7089 21.3341 16.6775 21.24 16.5835C21.1146 16.458 21.0833 16.3326 21.0833 16.2385ZM22.808 20.0956C22.6512 20.0956 22.5258 20.0643 22.4317 19.9702C22.3376 19.8761 22.2749 19.7507 22.2749 19.5939C22.2749 19.4371 22.3376 19.3117 22.4317 19.2176C22.5258 19.1235 22.6512 19.0608 22.808 19.0608C22.9648 19.0608 23.0902 19.1235 23.1843 19.2176C23.2784 19.3117 23.3411 19.4371 23.3411 19.5939C23.3411 19.7507 23.2784 19.8761 23.1843 19.9702C23.0589 20.0329 22.9334 20.0956 22.808 20.0956Z" fill="white"/>
</g>
</g>
<path id="Vector 1" d="M-7.70363 27.1474L27.1943 48.7052L37.6934 34.1717C37.6934 34.1717 28.9184 36.0077 22.5595 35.2403C17.2058 34.5943 12.3662 31.3267 9.2339 25.9945C6.09154 20.6452 6.97125 13.6849 10.4705 8.91973C14.6023 3.29324 21.7945 0.288863 21.7945 0.288863L13.9366 -7.88403L-7.70363 27.1474Z" fill="url(#paint0_linear_970_9021)"/>
</g>
</g>
<defs>
<linearGradient id="paint0_linear_970_9021" x1="32.2324" y1="63.756" x2="6.90058" y2="4.54019" gradientUnits="userSpaceOnUse">
<stop stop-color="#38BDF8"/>
<stop offset="1" stop-color="#38BDF8" stop-opacity="0"/>
</linearGradient>
</defs>
</svg>
