<svg width="40" height="41" viewBox="0 0 40 41" fill="none" xmlns="http://www.w3.org/2000/svg">
<g id="Loss Adjusting">
<mask id="mask0_970_9033" style="mask-type:alpha" maskUnits="userSpaceOnUse" x="0" y="0" width="40" height="41">
<circle id="Ellipse 4" cx="20" cy="20.2905" r="20" fill="#D9D9D9"/>
</mask>
<g mask="url(#mask0_970_9033)">
<path id="Ellipse 5" d="M40 20.2905C40 31.3362 31.0457 40.2905 20 40.2905C8.95431 40.2905 0 31.3362 0 20.2905C0 9.24483 8.95431 0.290527 20 0.290527C31.0457 0.290527 40 9.24483 40 20.2905Z" fill="#0EA5E9"/>
<g id="Group">
<path id="Vector" d="M24.2111 18.1913C25.3166 18.1913 26.201 17.3069 26.201 16.2291V15.5658C26.201 14.488 25.3166 13.6036 24.2111 13.6036C23.1057 13.6036 22.2213 14.488 22.2213 15.5658V16.2291C22.2213 17.3069 23.1057 18.1913 24.2111 18.1913ZM24.2111 14.2669C24.9573 14.2669 25.593 14.8473 25.593 15.5935V16.2567C25.593 16.9753 24.985 17.5833 24.2111 17.5833C23.4373 17.5833 22.8293 17.0029 22.8293 16.2567V15.5935C22.857 14.8473 23.465 14.2669 24.2111 14.2669Z" fill="white"/>
<path id="Vector_2" d="M28.9646 22.6685L28.1355 20.0983C27.8592 19.2692 27.113 18.7164 26.2286 18.7164H22.3595C21.5857 18.7164 20.8671 19.1586 20.5355 19.8772L19.4024 22.3368C19.2366 22.7237 19.126 23.1383 19.126 23.5528C19.126 24.1885 19.6511 24.7136 20.2868 24.7136H21.1159C21.1435 24.7136 21.1435 24.7136 21.1711 24.7136H21.6686V27.8088H22.3042V24.6583H24.8744H25.0126H25.0679C25.3166 24.6583 25.5377 24.5477 25.7035 24.3819L26.4221 24.5201V27.7536H27.0577V24.603C27.1959 24.6306 27.3617 24.6306 27.4999 24.6306C28.329 24.6306 29.0199 23.9397 29.0199 23.1106C29.0199 22.9725 28.9923 22.8066 28.9646 22.6685ZM27.4999 24.0226C27.3894 24.0226 27.2788 24.0226 27.1683 23.995L25.6483 23.7186C25.4824 23.691 25.3719 23.5252 25.3719 23.3594C25.3719 23.1383 25.5377 22.9725 25.7588 22.9725C25.7864 22.9725 25.8141 22.9725 25.8417 22.9725L27.5552 23.2765L27.6657 22.6685L27.0854 22.5579V20.9274H26.4497V22.4474L25.9523 22.3644V21.8117C25.9523 21.3143 25.5653 20.9274 25.0679 20.9274H24.8744L24.5704 20.1812C24.4875 19.9601 24.2664 19.7943 24.0177 19.7943H22.7188C22.4701 19.7943 22.249 19.9324 22.1661 20.1812L21.8621 20.9274H21.6686C21.1711 20.9274 20.7842 21.3143 20.7842 21.8117V22.6132H20.5079V23.2488H21.254C21.4751 23.2488 21.641 23.4146 21.641 23.6357C21.641 23.8568 21.4751 24.0226 21.254 24.0226H20.2591C19.9551 24.0226 19.734 23.7739 19.734 23.4975C19.734 23.1659 19.817 22.8619 19.9275 22.5579L21.0606 20.0983C21.2817 19.6284 21.7791 19.2968 22.3042 19.2968H26.1733C26.7813 19.2968 27.3064 19.6837 27.4723 20.2364L28.3014 22.8066C28.329 22.8895 28.3566 23.0001 28.3566 23.083C28.3843 23.6081 27.9974 24.0226 27.4999 24.0226ZM22.2766 23.6357C22.2766 23.1383 21.9173 22.7237 21.4475 22.6408V21.8117C21.4475 21.6735 21.558 21.563 21.6962 21.563H23.4097V20.9274H22.553L22.7464 20.4299H23.9901L24.4322 21.563H25.0679C25.2061 21.563 25.3166 21.6735 25.3166 21.8117V22.4474C24.985 22.6132 24.7639 22.9448 24.7639 23.3594C24.7639 23.6081 24.8744 23.8568 25.0126 24.0226H24.4875H22.2213C22.249 23.9121 22.2766 23.7739 22.2766 23.6357Z" fill="white"/>
<path id="Vector_3" d="M20.3144 19.3245V18.6888H16.9428L16.3348 17.3623H17.0809L17.6337 16.5608L18.0759 17.5557L19.5406 18.3295L19.8446 17.7768L18.5733 17.0859L18.1588 16.2292H19.4577V15.5935H17.4955L16.7217 16.7266H16.0308L15.3122 15.1237H21.6962V14.4881H20.8671V12.5259H19.5406L18.9879 13.355H18.2693V14.4881H14.6213C14.4278 14.4881 14.2344 14.6263 14.1238 14.7921L12.1616 18.4401C12.1064 18.523 12.0787 18.6335 12.0787 18.7165C12.0787 19.0205 12.3275 19.2968 12.6315 19.2968V23.995H12.0787V24.6307H16.086V23.995H13.2947V19.2968H14.4278V18.6612H12.7696L14.6766 15.1237L16.39 18.9375C16.4729 19.131 16.6664 19.2692 16.8875 19.2968V24.7136H17.5231V19.3245H20.3144ZM20.2591 13.1339V14.4604H18.9326V13.963H19.3471L19.8999 13.1339H20.2591Z" fill="white"/>
<path id="Vector_4" d="M23.3821 23.5528C23.7178 23.5528 23.9901 23.2806 23.9901 22.9448C23.9901 22.609 23.7178 22.3368 23.3821 22.3368C23.0463 22.3368 22.774 22.609 22.774 22.9448C22.774 23.2806 23.0463 23.5528 23.3821 23.5528Z" fill="white"/>
</g>
<path id="Vector 1" d="M-8.13332 27.2754L26.7646 48.8333L37.2637 34.2998C37.2637 34.2998 28.4887 36.1357 22.1298 35.3684C16.7761 34.7223 11.9365 31.4547 8.80421 26.1225C5.66186 20.7732 6.54156 13.813 10.0408 9.04778C14.1726 3.42129 21.3648 0.416914 21.3648 0.416914L13.507 -7.75598L-8.13332 27.2754Z" fill="url(#paint0_linear_970_9033)"/>
</g>
</g>
<defs>
<linearGradient id="paint0_linear_970_9033" x1="31.8027" y1="63.884" x2="6.47089" y2="4.66825" gradientUnits="userSpaceOnUse">
<stop stop-color="#0284C7"/>
<stop offset="1" stop-color="#0284C7" stop-opacity="0"/>
</linearGradient>
</defs>
</svg>
