<svg width="41" height="41" viewBox="0 0 41 41" fill="none" xmlns="http://www.w3.org/2000/svg">
<g id="Motor">
<mask id="mask0_970_9045" style="mask-type:alpha" maskUnits="userSpaceOnUse" x="0" y="0" width="41" height="41">
<circle id="Ellipse 4" cx="20.4297" cy="20.4188" r="20" fill="#D9D9D9"/>
</mask>
<g mask="url(#mask0_970_9045)">
<path id="Ellipse 5" d="M40.4297 20.4188C40.4297 31.4645 31.4754 40.4188 20.4297 40.4188C9.38399 40.4188 0.429688 31.4645 0.429688 20.4188C0.429688 9.37313 9.38399 0.418823 20.4297 0.418823C31.4754 0.418823 40.4297 9.37313 40.4297 20.4188Z" fill="#F97316"/>
<g id="Group">
<path id="Vector" d="M24.543 18.423C24.6031 18.5432 24.7234 18.6334 24.8436 18.6334C24.8737 18.6334 24.9338 18.6334 24.9638 18.6033C25.1442 18.5432 25.2043 18.3328 25.1442 18.1524L25.0841 17.942C25.024 17.7617 24.8136 17.7016 24.6332 17.7617C24.4528 17.8218 24.3927 18.0322 24.4528 18.2126L24.543 18.423Z" fill="white"/>
<path id="Vector_2" d="M27.0379 23.8937C27.0078 23.8035 26.9778 23.7735 26.9477 23.7434C27.1581 23.4428 27.1882 23.1422 27.1581 22.9619C27.098 22.6312 26.9176 22.3607 26.7373 22.1804C26.7373 21.9399 26.5269 21.7896 26.3465 21.6994C26.3465 21.6994 26.3465 21.6994 26.3465 21.6693C26.3465 21.4589 26.3465 21.0682 26.0159 20.9479C25.8656 20.9179 25.7453 20.9479 25.4147 21.0381C25.3245 21.0682 25.1742 21.1283 25.084 21.1283C24.9337 21.0982 24.7834 21.0982 24.6632 21.0682C24.5129 21.0682 24.3927 21.0682 24.1522 21.008C24.0921 20.978 23.8516 20.8277 23.6713 20.6774C23.0701 20.1965 22.0481 19.4149 20.4549 18.8738C19.1323 18.423 16.9681 18.2126 15.8258 18.453C14.8339 18.6634 14.3229 18.964 13.902 19.2045C13.5413 19.4149 13.2708 19.5652 12.7598 19.6554L12.5794 19.6854C12.3089 19.7155 11.9482 19.7756 11.6176 19.8658C11.317 19.956 10.7759 20.1063 10.6857 20.6774C10.5955 21.2185 10.5054 21.4289 10.4453 21.5792C10.3851 21.7295 10.325 21.8497 10.295 22.1202C10.2649 22.4208 10.2348 22.7214 10.2348 22.9619C10.2048 23.4729 10.5955 23.8937 11.1066 23.9538L12.0684 24.044C12.1286 24.2544 12.2488 24.4348 12.3991 24.6151C12.6997 24.9758 13.1205 25.2163 13.6015 25.2464C14.0824 25.3065 14.5333 25.1562 14.894 24.8556C15.0744 24.7053 15.1946 24.555 15.3148 24.3446L22.3186 25.036C22.3787 25.2464 22.499 25.4267 22.6492 25.6071C22.9498 25.9678 23.3707 26.2083 23.8516 26.2383C23.9117 26.2383 23.9718 26.2383 24.032 26.2383C24.4528 26.2383 24.8436 26.088 25.1442 25.8175C25.3245 25.6672 25.4447 25.5169 25.565 25.3065L26.5269 25.3967C26.587 25.3967 26.6471 25.3967 26.7072 25.3666C27.1281 25.1863 27.4888 24.7654 27.2783 24.2845C27.1581 24.1342 27.098 24.014 27.0379 23.8937ZM11.2568 20.8277C11.2568 20.7976 11.2568 20.7676 11.2869 20.7375H11.317C11.3771 20.7676 11.5274 20.8878 11.6176 20.978C11.5875 21.1884 11.5574 21.3086 11.5274 21.3688C11.4673 21.3688 11.317 21.3988 11.1066 21.3688C11.1667 21.2786 11.2268 21.0982 11.2568 20.8277ZM14.3529 24.3747C14.1425 24.555 13.8419 24.6452 13.5714 24.6151C13.2708 24.5851 13.0303 24.4648 12.8199 24.2244C12.6396 24.014 12.5494 23.7134 12.5794 23.4428C12.6396 22.8717 13.1205 22.4509 13.6616 22.4509C13.6916 22.4509 13.7217 22.4509 13.7518 22.4509C14.3529 22.511 14.8038 23.0521 14.7437 23.6232C14.7136 23.9238 14.5633 24.1943 14.3529 24.3747ZM24.6933 25.3065C24.4829 25.4869 24.1823 25.577 23.9117 25.547C23.6111 25.5169 23.3707 25.3967 23.1603 25.1562C22.9799 24.9458 22.8897 24.6452 22.9198 24.3747C22.9799 23.8035 23.4608 23.3827 24.0019 23.3827C24.032 23.3827 24.062 23.3827 24.0921 23.3827C24.6933 23.4428 25.1442 23.9839 25.084 24.555C25.054 24.8857 24.9337 25.1261 24.6933 25.3065ZM26.4668 24.7354L25.7754 24.6753V24.6452C25.8656 23.6833 25.1442 22.8116 24.1823 22.7214C23.2204 22.6312 22.3487 23.3527 22.2585 24.3145V24.3446L15.405 23.7134V23.6833C15.4952 22.7214 14.7738 21.8497 13.8119 21.7595C12.85 21.6693 11.9783 22.3908 11.8881 23.3527V23.3827L11.0765 23.2925C10.9262 23.2925 10.836 23.1422 10.836 23.022C10.836 22.8116 10.8661 22.511 10.8961 22.2405C10.8961 22.1804 10.9262 22.1202 10.9262 22.0601C11.6176 22.1202 11.828 22.0301 11.8881 22C11.9783 21.9399 12.2789 21.7896 12.3089 20.8878C12.3089 20.7676 12.1887 20.5872 12.0384 20.467C12.2187 20.4369 12.4292 20.4069 12.6095 20.3768L12.7899 20.3467C13.4211 20.2566 13.7818 20.0462 14.1726 19.8357C14.5934 19.5953 15.0142 19.3548 15.916 19.1744C16.908 18.964 19.0121 19.1444 20.1844 19.5652C21.6874 20.0762 22.6492 20.8277 23.2204 21.2485C23.551 21.489 23.7614 21.6693 23.9718 21.6994C24.2724 21.7595 24.4829 21.7595 24.6331 21.7896C24.7534 21.7896 24.8436 21.7896 24.9337 21.8196C25.084 21.8497 25.2043 21.8196 25.595 21.6994C25.6251 21.6994 25.6251 21.6994 25.6552 21.6693C25.6552 21.8196 25.6552 22.0601 25.8055 22.1804L25.5349 22.5411C25.4147 22.6914 25.4447 22.9018 25.595 23.022C25.7453 23.1422 25.9557 23.1122 26.076 22.9619L26.2864 22.6613C26.3766 22.7515 26.4668 22.8717 26.4668 22.9919C26.4968 23.1122 26.4367 23.2324 26.3165 23.3827C26.2563 23.4428 26.2563 23.503 26.2263 23.5631C26.1962 23.8035 26.3165 23.9839 26.4066 24.1943C26.4668 24.2845 26.5269 24.4047 26.587 24.555C26.617 24.6151 26.5569 24.7053 26.4668 24.7354Z" fill="white"/>
<path id="Vector_3" d="M22.5591 20.8578C22.4088 20.7376 22.1984 20.7676 22.0781 20.9179C22.018 20.978 22.018 21.0682 22.018 21.1283L18.8317 20.7376L18.7716 19.7456C18.7716 19.5652 18.5913 19.415 18.4109 19.445C18.2306 19.445 18.0803 19.6254 18.1103 19.8057L18.1704 20.6474L15.4651 20.3167C15.5553 20.1965 15.6455 20.0763 15.6755 20.0462C15.8258 19.926 15.8258 19.7155 15.7056 19.5652C15.5854 19.415 15.375 19.415 15.2247 19.5352C15.2247 19.5352 14.4431 20.3468 14.5634 20.6774C14.5934 20.7977 14.7137 20.8878 14.8339 20.9179L18.5312 21.3688L22.499 21.8497H22.529C22.6192 21.8497 22.6793 21.8197 22.7394 21.7596C22.7996 21.6994 22.8597 21.6093 22.8597 21.5191C22.8597 21.489 22.8897 21.0983 22.5591 20.8578Z" fill="white"/>
<path id="Vector_4" d="M25.2343 22.1504L24.6031 21.9099C24.4227 21.8498 24.2424 21.94 24.1822 22.1203C24.1221 22.3007 24.2123 22.481 24.3927 22.5411L25.0239 22.7816C25.054 22.7816 25.1141 22.8117 25.1441 22.8117C25.2944 22.8117 25.4147 22.7215 25.4748 22.6013C25.4748 22.4209 25.3846 22.2105 25.2343 22.1504Z" fill="white"/>
<path id="Vector_5" d="M30.1641 13.6737H27.8796C27.579 13.6737 27.3385 13.9142 27.3385 14.2148V19.5352L26.7674 18.0623C26.7073 17.9421 26.6171 17.8519 26.4668 17.8519C26.3466 17.8519 26.2263 17.912 26.1362 18.0323L25.3847 19.3849L24.5731 18.7838C24.4528 18.6936 24.3025 18.6936 24.1823 18.7838C24.0621 18.8739 24.002 19.0242 24.032 19.1445L24.3627 20.437C24.3927 20.5873 24.543 20.6775 24.6933 20.6775C24.7234 20.6775 24.7534 20.6775 24.7835 20.6775C24.9638 20.6174 25.0841 20.437 25.024 20.2566L24.9338 19.926L25.2945 20.1965C25.3847 20.2566 25.4749 20.2867 25.565 20.2566C25.6552 20.2266 25.7454 20.1665 25.7754 20.0763L26.3466 19.0242L26.7674 20.0763C26.8275 20.2566 27.0379 20.3468 27.2183 20.2566C27.2483 20.2566 27.2784 20.2266 27.3085 20.1965V24.7355C27.3085 25.036 27.5489 25.2765 27.8495 25.2765H30.134C30.4346 25.2765 30.6751 25.036 30.6751 24.7355V14.2148C30.7051 13.9142 30.4647 13.6737 30.1641 13.6737ZM30.0438 14.335V21.8498H27.9998V14.335H30.0438ZM27.9998 24.5852V22.5111H30.0438V24.5852H27.9998Z" fill="white"/>
</g>
<path id="Vector 1" d="M-7.70363 27.4037L27.1943 48.9616L37.6934 34.4281C37.6934 34.4281 28.9184 36.264 22.5595 35.4967C17.2058 34.8506 12.3662 31.583 9.2339 26.2508C6.09154 20.9015 6.97125 13.9413 10.4705 9.17608C14.6023 3.54959 21.7945 0.54521 21.7945 0.54521L13.9366 -7.62769L-7.70363 27.4037Z" fill="url(#paint0_linear_970_9045)"/>
</g>
</g>
<defs>
<linearGradient id="paint0_linear_970_9045" x1="32.2324" y1="64.0123" x2="6.90058" y2="4.79654" gradientUnits="userSpaceOnUse">
<stop stop-color="#C2410C"/>
<stop offset="1" stop-color="#C2410C" stop-opacity="0"/>
</linearGradient>
</defs>
</svg>
