<svg width="41" height="41" viewBox="0 0 41 41" fill="none" xmlns="http://www.w3.org/2000/svg">
<g id="Repair &#38; Restoration">
<mask id="mask0_782_11079" style="mask-type:alpha" maskUnits="userSpaceOnUse" x="0" y="0" width="41" height="41">
<circle id="Ellipse 4" cx="20.4297" cy="20.1624" r="20" fill="#D9D9D9"/>
</mask>
<g mask="url(#mask0_782_11079)">
<path id="Ellipse 5" d="M40.4297 20.1624C40.4297 31.208 31.4754 40.1624 20.4297 40.1624C9.38399 40.1624 0.429688 31.208 0.429688 20.1624C0.429688 9.11666 9.38399 0.162354 20.4297 0.162354C31.4754 0.162354 40.4297 9.11666 40.4297 20.1624Z" fill="#EAB308"/>
<g id="Group">
<path id="Vector" d="M30.8382 18.0207L29.9775 17.1918C29.7862 17.0005 29.5312 16.9687 29.3081 17.0962L28.7024 16.5224C28.2561 16.1398 28.2879 15.8529 28.2879 15.821C28.4473 15.0559 27.8735 14.514 27.8416 14.4821L26.2158 13.1114L26.184 13.0795C23.9206 11.6449 20.7965 13.717 20.6371 13.8127C20.5096 13.9083 20.4458 14.0677 20.5096 14.2271C20.5733 14.3865 20.7327 14.4821 20.8921 14.4503C22.486 14.259 23.1874 15.1835 23.1874 15.1835C23.7612 15.7573 23.6974 16.1398 23.5699 16.2673L20.5096 19.4552C20.3821 19.5827 20.3821 19.8377 20.5096 19.9652C20.5733 20.029 20.669 20.0609 20.7646 20.0609C20.8602 20.0609 20.9559 20.029 21.0196 19.9652L22.8686 18.0844L24.0162 19.232L22.231 20.9854C22.1035 21.1129 22.1035 21.336 22.231 21.4954C22.2948 21.5592 22.3904 21.5911 22.486 21.5911C22.5817 21.5911 22.6773 21.5592 22.7411 21.4954L25.4508 18.8176C25.6739 18.5945 25.8652 18.4988 26.0883 18.4988C26.4709 18.4988 26.7578 18.8176 26.7897 18.8176L27.236 19.2958C27.236 19.3277 27.236 19.3914 27.236 19.4233C27.236 19.5827 27.2997 19.7102 27.4272 19.8377L28.2879 20.6666C28.4155 20.7622 28.543 20.826 28.7024 20.826C28.8618 20.826 29.0212 20.7622 29.1168 20.6347L30.902 18.7857C30.9976 18.6582 31.0614 18.5307 31.0614 18.3713C31.0614 18.2119 30.9657 18.1163 30.8382 18.0207ZM26.0883 17.7975C25.642 17.7975 25.2595 17.9888 24.9088 18.3394L24.5263 18.7539L23.3786 17.6062L24.08 16.873C24.1119 16.8411 24.3669 16.5861 24.3669 16.1398C24.3669 15.6935 24.1437 15.2153 23.6974 14.769C23.6018 14.6415 23.1236 14.0677 22.1354 13.8446C23.1236 13.3983 24.6219 12.9838 25.7377 13.717L27.3316 15.0559C27.3316 15.0559 27.6185 15.3429 27.5547 15.6935C27.5229 15.7573 27.3953 16.3948 28.1923 17.0962L28.7661 17.6062L27.6185 18.7857C27.6185 18.7857 26.7578 17.8294 26.0883 17.7975ZM28.6386 20.1246L27.9692 19.4871L28.001 19.4552L29.595 17.8294L30.2644 18.467L28.6386 20.1246Z" fill="white"/>
<path id="Vector_2" d="M19.2023 24.0776L17.1621 26.1178L16.0145 24.9702L18.0866 22.9618C18.2141 22.8343 18.246 22.6112 18.0866 22.4518C17.9591 22.3243 17.7359 22.2924 17.5765 22.4518L15.4088 24.5558C15.2813 24.6514 15.2494 24.8108 15.2175 24.9702C15.2175 25.1296 15.2813 25.289 15.3769 25.3846L16.7158 26.7235C16.8433 26.851 16.9709 26.8829 17.1302 26.8829C17.2896 26.8829 17.4171 26.8192 17.5447 26.7235L19.6805 24.5877C19.808 24.4601 19.808 24.2051 19.6805 24.0776C19.553 23.9501 19.3617 23.9182 19.2023 24.0776Z" fill="white"/>
<path id="Vector_3" d="M24.2712 25.6078C24.1118 25.4484 23.8567 25.4484 23.6973 25.6078C23.6336 25.6716 23.5698 25.7672 23.5698 25.8947C23.5698 26.0222 23.6017 26.086 23.6973 26.1816C23.7611 26.2454 23.8886 26.3092 23.9842 26.3092C24.0799 26.3092 24.1755 26.2773 24.2712 26.1816C24.4305 26.0222 24.4305 25.7672 24.2712 25.6078Z" fill="white"/>
<path id="Vector_4" d="M18.8198 19.2001L19.6805 17.7019C19.8718 17.3512 19.9355 17.0962 19.6486 16.8093L15.4725 12.6332C15.2175 12.3781 14.8031 12.3781 14.5481 12.6332L10.7226 16.4586C10.4676 16.7136 10.4676 17.128 10.7226 17.3831L14.8987 21.5592C15.1856 21.8461 15.4088 21.7823 15.7913 21.591C15.7913 21.591 17.3215 20.7303 17.3215 20.6984L22.9959 26.7872C23.0278 26.8191 23.0596 26.851 23.0915 26.8829C23.3466 27.1379 23.6972 27.2654 24.0479 27.2654C24.3985 27.2654 24.7173 27.1379 25.0042 26.8829L25.0361 26.851C25.5462 26.3409 25.5462 25.4802 25.0361 24.9702C24.9724 24.9383 18.8198 19.2001 18.8198 19.2001ZM23.5697 26.4366C23.5697 26.4366 23.5378 26.4047 23.5059 26.3728L17.8316 20.2521C17.704 20.1246 17.6084 20.029 17.449 20.029C17.3215 20.029 17.1621 20.0927 16.939 20.2203C16.8433 20.284 15.8232 20.8578 15.4407 21.081H15.4088L14.9306 20.6028L18.7242 16.8093L19.2023 17.2874V17.3193C18.9473 17.7975 18.4054 18.722 18.3416 18.8176C18.0547 19.2958 18.1185 19.4871 18.3735 19.7102L24.5579 25.4483C24.7811 25.6715 24.813 25.9903 24.6855 26.2453C24.6855 26.2453 24.6536 26.3409 24.5579 26.4366C24.4942 26.5003 24.3985 26.5641 24.3985 26.5641C24.1116 26.6916 23.761 26.6279 23.5697 26.4366ZM13.4004 14.7372L14.9625 16.2992C15.09 16.4267 15.3132 16.4267 15.4407 16.2992C15.5682 16.1717 15.5682 15.9485 15.4407 15.821L13.8786 14.259L14.2293 13.9083L15.7913 15.4704C15.8551 15.5341 15.9507 15.566 16.0145 15.566C16.1101 15.566 16.1739 15.5341 16.2376 15.4704C16.3014 15.4066 16.3333 15.311 16.3333 15.2472C16.3333 15.1516 16.3014 15.0878 16.2376 15.0241L14.6756 13.462L14.9625 13.1432L17.2896 15.4704L13.528 19.2001L11.2008 16.9049L11.5196 16.5861L13.0817 18.1482C13.1454 18.2119 13.241 18.2438 13.3048 18.2438C13.4004 18.2438 13.4642 18.2119 13.528 18.1482C13.6555 18.0206 13.6555 17.7975 13.528 17.67L11.9659 16.1079L12.3166 15.7573L13.8786 17.3193C14.0061 17.4468 14.2293 17.4468 14.3568 17.3193C14.4843 17.1918 14.4843 16.9686 14.3568 16.8411L12.8585 15.311L13.4004 14.7372ZM14.0061 19.6783L17.7997 15.8848L18.246 16.3311L14.4524 20.1246L14.0061 19.6783Z" fill="white"/>
</g>
<path id="Vector 1" d="M-7.70363 27.1474L27.1943 48.7052L37.6934 34.1717C37.6934 34.1717 28.9184 36.0077 22.5595 35.2403C17.2058 34.5943 12.3662 31.3267 9.2339 25.9945C6.09154 20.6452 6.97125 13.6849 10.4705 8.91973C14.6023 3.29324 21.7945 0.288863 21.7945 0.288863L13.9366 -7.88403L-7.70363 27.1474Z" fill="url(#paint0_linear_782_11079)"/>
</g>
</g>
<defs>
<linearGradient id="paint0_linear_782_11079" x1="32.2324" y1="63.756" x2="6.90058" y2="4.54019" gradientUnits="userSpaceOnUse">
<stop stop-color="#A16207"/>
<stop offset="1" stop-color="#A16207" stop-opacity="0"/>
</linearGradient>
</defs>
</svg>
