<svg width="40" height="41" viewBox="0 0 40 41" fill="none" xmlns="http://www.w3.org/2000/svg">
<g id="Subsidence">
<mask id="mask0_970_9058" style="mask-type:alpha" maskUnits="userSpaceOnUse" x="0" y="0" width="40" height="41">
<circle id="Ellipse 4" cx="20" cy="20.2905" r="20" fill="#D9D9D9"/>
</mask>
<g mask="url(#mask0_970_9058)">
<path id="Ellipse 5" d="M40 20.2905C40 31.3362 31.0457 40.2905 20 40.2905C8.95431 40.2905 0 31.3362 0 20.2905C0 9.24483 8.95431 0.290527 20 0.290527C31.0457 0.290527 40 9.24483 40 20.2905Z" fill="#8B5CF6"/>
<g id="Group">
<path id="Vector" d="M13.4744 19.9508V27.7106H19.1628L19.0392 27.0305L18.5136 24.4027L19.1628 22.6714L19.4411 21.8985L19.1938 21.4038L18.9774 20.971L20.0594 21.713L19.5338 23.8771L19.4102 24.4336L19.9048 25.5156L20.585 27.0614L20.8941 27.7416H26.7063V19.9508L20.0903 14.5096L13.4744 19.9508ZM26.057 27.0305H21.4197L20.214 24.3099L20.8941 21.4038L17.8335 19.3016L17.4625 19.8271L18.5755 21.9294L17.7098 24.279L18.2663 27.0305H14.1236V20.26L20.0903 15.3753L26.057 20.26V27.0305Z" fill="white"/>
<path id="Vector_2" d="M20.0903 11.8199L16.3804 14.8806L16.3495 13.0566H13.4743V17.3229L11.3721 19.0542L11.774 19.5489L14.1236 17.6321V13.7058H15.7003L15.7312 16.2718L20.0903 12.6856L28.6539 19.5798L29.0558 19.0542L20.0903 11.8199Z" fill="white"/>
</g>
<path id="Vector 1" d="M-8.13332 27.2754L26.7646 48.8333L37.2637 34.2998C37.2637 34.2998 28.4887 36.1357 22.1298 35.3684C16.7761 34.7223 11.9365 31.4547 8.80421 26.1225C5.66186 20.7732 6.54156 13.813 10.0408 9.04778C14.1726 3.42129 21.3648 0.416914 21.3648 0.416914L13.507 -7.75598L-8.13332 27.2754Z" fill="url(#paint0_linear_970_9058)"/>
</g>
</g>
<defs>
<linearGradient id="paint0_linear_970_9058" x1="31.8027" y1="63.884" x2="6.47089" y2="4.66825" gradientUnits="userSpaceOnUse">
<stop stop-color="#112C6B"/>
<stop offset="0.0001" stop-color="#7E22CE"/>
<stop offset="1" stop-color="#7E22CE" stop-opacity="0"/>
</linearGradient>
</defs>
</svg>
