<svg width="41" height="41" viewBox="0 0 41 41" fill="none" xmlns="http://www.w3.org/2000/svg">
<g id="Surveying">
<mask id="mask0_782_11037" style="mask-type:alpha" maskUnits="userSpaceOnUse" x="0" y="0" width="41" height="41">
<circle id="Ellipse 4" cx="20.4297" cy="20.8376" r="20" fill="#D9D9D9"/>
</mask>
<g mask="url(#mask0_782_11037)">
<path id="Ellipse 5" d="M40.4297 20.8376C40.4297 31.8833 31.4754 40.8376 20.4297 40.8376C9.38399 40.8376 0.429688 31.8833 0.429688 20.8376C0.429688 9.79195 9.38399 0.837646 20.4297 0.837646C31.4754 0.837646 40.4297 9.79195 40.4297 20.8376Z" fill="#10B981"/>
<g id="Group">
<path id="Vector" d="M20.6378 16.111C20.8232 16.0493 20.9159 15.8639 20.885 15.7094C20.7305 15.1533 20.4525 14.6281 20.0508 14.1955C20.0199 14.1646 19.989 14.1028 19.9581 14.1028C19.6801 13.8248 19.3711 13.6085 19.0313 13.4232L18.815 12.6508C18.7841 12.589 18.7532 12.4963 18.6914 12.4654C18.3207 12.2182 17.919 12.0329 17.4865 11.9402C17.2702 11.9093 17.054 11.8784 16.8377 11.9093C16.6214 11.9093 16.3743 11.9402 16.158 12.002H16.1271C15.262 12.2491 14.5514 12.8361 14.1807 13.6703C14.1498 13.7321 14.1498 13.8248 14.1498 13.8866L14.3661 14.659C13.81 15.524 13.6555 16.5745 13.9026 17.5631C13.9335 17.6558 13.9953 17.7176 14.0571 17.7794C14.1498 17.8103 14.2116 17.8412 14.3043 17.8103L14.5515 17.7485C14.6441 19.355 15.9417 20.5909 17.5483 20.5909C19.2166 20.5909 20.5451 19.2315 20.5451 17.594C20.5451 17.1306 20.4216 16.6363 20.2053 16.2346L20.6378 16.111ZM19.9272 17.594C19.9272 18.8916 18.8768 19.9421 17.5792 19.9421C16.2816 19.9421 15.2311 18.8916 15.2311 17.594V17.5631L19.5874 16.3891C19.8345 16.7598 19.9272 17.1615 19.9272 17.594ZM17.919 13.0524C17.4247 12.9906 16.9613 13.0215 16.4979 13.1451C15.9108 13.2996 15.3547 13.6085 14.9222 14.0411L14.8604 13.8557C15.1694 13.2687 15.6946 12.8361 16.3434 12.6508C16.4979 12.6199 16.6832 12.589 16.8377 12.589C17.3629 12.5581 17.8264 12.6817 18.228 12.9597L18.2898 13.1451C18.1662 13.1142 18.0426 13.0833 17.919 13.0524ZM16.6523 13.7939C16.8995 13.7321 17.1467 13.7012 17.3938 13.7012C17.4247 13.7012 17.4247 13.7012 17.4556 13.7012C18.0426 13.7012 18.5987 13.8866 19.0622 14.1955L18.3207 14.4118C18.1971 14.4427 18.1044 14.5354 18.0735 14.6281C18.0426 14.7516 18.0735 14.8752 18.1662 14.9679C18.2589 15.0606 18.3516 15.0915 18.4752 15.0297L19.6492 14.7208C19.8654 14.9679 20.0199 15.246 20.1435 15.524L14.5206 17.0379C14.3043 15.5858 15.2003 14.1955 16.6523 13.7939Z" fill="white"/>
<path id="Vector_2" d="M16.5596 20.9615C14.4896 20.9615 12.8213 22.6299 12.8213 24.6999V28.2528C12.8213 28.4382 12.9758 28.5927 13.1611 28.5927H19.989C20.0817 28.5927 20.1744 28.5618 20.2362 28.5C20.298 28.4382 20.3288 28.3455 20.3288 28.2528V24.6999C20.298 22.6299 18.6296 20.9615 16.5596 20.9615ZM14.9531 24.8544C14.9531 23.9584 15.6328 23.2787 16.5287 23.2478H16.5596C17.4556 23.2478 18.1662 23.9584 18.1662 24.8544V27.9439H14.984V24.8544H14.9531ZM16.5596 22.599C15.3238 22.599 14.3043 23.6185 14.3043 24.8544V27.9439H13.501V24.6999C13.501 23.0006 14.8913 21.6103 16.5905 21.6103C18.2898 21.6103 19.68 23.0006 19.68 24.6999V27.9439H18.8768V24.8544C18.815 23.6185 17.7954 22.599 16.5596 22.599Z" fill="white"/>
<path id="Vector_3" d="M27.5894 22.8461C27.6821 22.6917 27.7439 22.5063 27.7439 22.3209C27.7439 21.7957 27.3114 21.3941 26.8171 21.3941H26.6935L26.5081 21.1469C26.7553 21.0542 26.9406 20.8997 27.0333 20.6835L27.8984 20.8997H27.9293H27.9602C28.7944 20.8997 29.4741 20.22 29.4741 19.3859C29.4741 18.5517 28.7944 17.872 27.9602 17.872C27.9293 17.872 27.8675 17.872 27.8366 17.9029L27.0024 18.1192C26.8479 17.8102 26.5699 17.6248 26.1991 17.5939V17.3468C26.1991 16.6671 25.643 16.1419 24.9942 16.111H24.9633C24.2836 16.111 23.7275 16.6671 23.7275 17.3468V17.5939C23.2332 17.6248 22.8625 17.9956 22.8316 18.4899H22.5226C22.399 18.3045 22.2137 18.1809 21.9974 18.1809H21.6884C21.3486 18.1809 21.0705 18.459 21.0705 18.7989V19.6948C21.0705 20.0347 21.3486 20.3127 21.6884 20.3127H21.9974C22.2137 20.3127 22.4299 20.1891 22.5226 20.0038H22.8316V20.2509C22.8316 20.6526 23.0787 20.9924 23.4495 21.116L23.2641 21.3941H23.1405C22.8933 21.3941 22.6462 21.4867 22.4917 21.6721C22.3063 21.8575 22.2137 22.0738 22.2137 22.3209C22.2137 22.5372 22.2754 22.7535 22.4299 22.9079L20.5762 28.1601C20.5453 28.2528 20.5453 28.3764 20.6071 28.4691C20.6689 28.5618 20.7616 28.6236 20.8852 28.6236H22.1519C22.3063 28.6236 22.4299 28.5309 22.4608 28.4073L24.0056 24.0511V28.2837C24.0056 28.4691 24.1601 28.6236 24.3454 28.6236H25.5195C25.7048 28.6236 25.8593 28.4691 25.8593 28.2837V23.8657L27.5585 28.3764C27.6203 28.5 27.7439 28.5927 27.8675 28.5927H29.1342C29.2578 28.5927 29.3505 28.5309 29.4123 28.4382C29.4741 28.3455 29.5049 28.2219 29.4432 28.1292L27.5894 22.8461ZM24.778 27.9439V23.2787H25.2723V27.9439H24.778ZM24.469 17.5321V17.285C24.469 16.976 24.7162 16.7289 25.0251 16.7289C25.3341 16.7289 25.5812 16.976 25.5812 17.285V17.5321H24.469ZM25.8902 21.3941H24.1601L24.3145 21.1778H25.7357L25.8902 21.3941ZM23.573 18.459C23.573 18.3045 23.6966 18.2118 23.8202 18.2118H26.1991C26.3536 18.2118 26.4463 18.3354 26.4463 18.459V20.2509C26.4463 20.4054 26.3227 20.4981 26.1991 20.4981H23.8202C23.6657 20.4981 23.573 20.3745 23.573 20.2509V18.459ZM23.6657 23.2787L21.9974 27.9439H21.4413L23.1096 23.2478C23.1714 23.2478 23.2023 23.2478 23.2332 23.2478H23.6657V23.2787ZM22.986 22.3209C22.986 22.1664 23.1096 22.0738 23.2332 22.0738H26.8171C26.9715 22.0738 27.0642 22.1973 27.0642 22.3209C27.0642 22.4754 26.9406 22.5681 26.8171 22.5681H23.2332C23.1096 22.599 22.986 22.4754 22.986 22.3209ZM26.8171 23.2787C26.8788 23.2787 26.9406 23.2787 27.0024 23.2478L28.6708 27.9439H28.1147L26.4463 23.2787H26.8171ZM27.1569 20.0038V18.7371L27.6821 18.6135V20.1274L27.1569 20.0038ZM28.8561 19.355C28.8561 19.7875 28.5472 20.0656 28.3309 20.1274V18.5517C28.5472 18.6753 28.8561 18.9224 28.8561 19.355ZM22.8934 19.1078V19.3241H22.6771V19.1078H22.8934ZM21.9974 18.7989V19.6021H21.7811V18.7989H21.9974Z" fill="white"/>
</g>
<path id="Vector 1" d="M-7.70363 27.8226L27.1943 49.3804L37.6934 34.8469C37.6934 34.8469 28.9184 36.6828 22.5595 35.9155C17.2058 35.2695 12.3662 32.0018 9.2339 26.6697C6.09154 21.3204 6.97125 14.3601 10.4705 9.5949C14.6023 3.96841 21.7945 0.964033 21.7945 0.964033L13.9366 -7.20886L-7.70363 27.8226Z" fill="url(#paint0_linear_782_11037)"/>
</g>
</g>
<defs>
<linearGradient id="paint0_linear_782_11037" x1="32.2324" y1="64.4311" x2="6.90058" y2="5.21537" gradientUnits="userSpaceOnUse">
<stop stop-color="#047857"/>
<stop offset="1" stop-color="#059669" stop-opacity="0"/>
</linearGradient>
</defs>
</svg>
