<svg width="40" height="41" viewBox="0 0 40 41" fill="none" xmlns="http://www.w3.org/2000/svg">
<g id="Technology">
<mask id="mask0_970_9078" style="mask-type:alpha" maskUnits="userSpaceOnUse" x="0" y="0" width="40" height="41">
<circle id="Ellipse 4" cx="20" cy="20.2905" r="20" fill="#D9D9D9"/>
</mask>
<g mask="url(#mask0_970_9078)">
<path id="Ellipse 5" d="M40 20.2905C40 31.3362 31.0457 40.2905 20 40.2905C8.95431 40.2905 0 31.3362 0 20.2905C0 9.24483 8.95431 0.290527 20 0.290527C31.0457 0.290527 40 9.24483 40 20.2905Z" fill="#3A3E8A"/>
<path id="Vector" d="M26.4447 16.4745H22.5369V13.9914C22.5369 13.9301 22.5676 13.8994 22.6292 13.8994H24.0754C24.2292 14.3899 24.6908 14.7578 25.2139 14.7578C25.8909 14.7578 26.414 14.206 26.414 13.5622C26.414 12.9184 25.8601 12.3666 25.2139 12.3666C24.66 12.3666 24.1985 12.7345 24.0754 13.225H22.6292C22.1984 13.225 21.8599 13.5622 21.8599 13.9914V16.4745H20.6906V12.5812C21.1829 12.4279 21.5522 11.9681 21.5522 11.4469C21.5522 10.7725 20.9983 10.2513 20.3521 10.2513C19.6752 10.2513 19.1521 10.8031 19.1521 11.4469C19.1521 11.9987 19.5213 12.4586 20.0137 12.5812V16.5051H18.8752V14.022C18.8752 13.5928 18.5367 13.2556 18.1059 13.2556H16.6597C16.5058 12.7651 16.0443 12.3973 15.5212 12.3973C14.8442 12.3973 14.3211 12.9491 14.3211 13.5928C14.3211 14.2366 14.875 14.7884 15.5212 14.7884C16.075 14.7884 16.5366 14.4205 16.6904 13.9301H18.1367C18.1982 13.9301 18.229 13.9607 18.229 14.022V16.5051H14.2596C13.8288 16.5051 13.4903 16.8424 13.4903 17.2715V25.1195C13.4903 25.5486 13.8288 25.8859 14.2596 25.8859H19.9829V27.6946H17.5828C17.3982 27.6946 17.2443 27.8478 17.2443 28.0318C17.2443 28.2157 17.3982 28.369 17.5828 28.369H23.1215C23.3061 28.369 23.46 28.2157 23.46 28.0318C23.46 27.8478 23.3061 27.6946 23.1215 27.6946H20.6906V26.0085C20.6906 25.9778 20.6906 25.8859 20.6906 25.8859H26.4447C26.8755 25.8859 27.214 25.5486 27.214 25.1195V17.2715C27.2448 16.8424 26.8755 16.4745 26.4447 16.4745ZM25.2447 13.041C25.5216 13.041 25.7678 13.2863 25.7678 13.5622C25.7678 13.8381 25.5216 14.0833 25.2447 14.0833C24.9677 14.0833 24.7216 13.8381 24.7216 13.5622C24.7216 13.2863 24.9677 13.041 25.2447 13.041ZM15.5212 14.114C15.2442 14.114 14.9981 13.8687 14.9981 13.5928C14.9981 13.3169 15.2442 13.0717 15.5212 13.0717C15.7981 13.0717 16.0443 13.3169 16.0443 13.5928C16.0443 13.8687 15.7981 14.114 15.5212 14.114ZM19.829 11.4163C19.829 11.1404 20.0752 10.8951 20.3521 10.8951C20.6291 10.8951 20.8752 11.1404 20.8752 11.4163C20.8752 11.6922 20.6291 11.9374 20.3521 11.9374C20.0752 11.9374 19.829 11.6922 19.829 11.4163ZM26.5063 25.0888C26.5063 25.1501 26.4755 25.1808 26.414 25.1808H20.3521H14.2596C14.198 25.1808 14.1672 25.1501 14.1672 25.0888V17.2715C14.1672 17.2102 14.198 17.1796 14.2596 17.1796H18.1674V20.8583C18.1674 21.0422 18.3213 21.1955 18.5059 21.1955C18.6905 21.1955 18.8444 21.0422 18.8444 20.8583V17.1796H19.9829V22.759C19.9829 22.9429 20.1367 23.0962 20.3214 23.0962C20.506 23.0962 20.6598 22.9429 20.6598 22.759V17.1796H21.8291V20.8583C21.8291 21.0422 21.983 21.1955 22.1676 21.1955C22.3522 21.1955 22.5061 21.0422 22.5061 20.8583V17.1796H26.414C26.4755 17.1796 26.5063 17.2102 26.5063 17.2715V25.0888Z" fill="white"/>
<path id="Vector 1" d="M-8.13332 27.2754L26.7646 48.8333L37.2637 34.2998C37.2637 34.2998 28.4887 36.1357 22.1298 35.3684C16.7761 34.7223 11.9365 31.4547 8.80421 26.1225C5.66186 20.7732 6.54156 13.813 10.0408 9.04778C14.1726 3.42129 21.3648 0.416914 21.3648 0.416914L13.507 -7.75598L-8.13332 27.2754Z" fill="url(#paint0_linear_970_9078)"/>
</g>
</g>
<defs>
<linearGradient id="paint0_linear_970_9078" x1="31.8027" y1="63.884" x2="6.47089" y2="4.66825" gradientUnits="userSpaceOnUse">
<stop stop-color="#202357"/>
<stop offset="1" stop-color="#202357" stop-opacity="0"/>
</linearGradient>
</defs>
</svg>
