<svg width="41" height="41" viewBox="0 0 41 41" fill="none" xmlns="http://www.w3.org/2000/svg">
<g id="TPA">
<mask id="mask0_970_9086" style="mask-type:alpha" maskUnits="userSpaceOnUse" x="0" y="0" width="41" height="41">
<circle id="Ellipse 4" cx="20.4297" cy="20.1283" r="20" fill="#D9D9D9"/>
</mask>
<g mask="url(#mask0_970_9086)">
<path id="Ellipse 5" d="M40.4297 20.1283C40.4297 31.174 31.4754 40.1283 20.4297 40.1283C9.38399 40.1283 0.429688 31.174 0.429688 20.1283C0.429688 9.0826 9.38399 0.128296 20.4297 0.128296C31.4754 0.128296 40.4297 9.0826 40.4297 20.1283Z" fill="#F59E0B"/>
<g id="Group">
<path id="Vector" d="M29.0233 16.3387C28.2956 16.3387 27.7333 16.9341 27.7333 17.6618C27.7333 17.6949 27.7333 17.6949 27.7333 17.728L24.5579 18.2572C24.2932 17.5295 23.7309 16.9341 23.0032 16.6364L23.4332 14.9495C23.4332 14.9495 23.6317 14.9825 23.6978 14.9825C24.6902 14.9825 25.5171 14.1556 25.5171 13.1633C25.5171 12.1379 24.6902 11.344 23.6978 11.344C22.7055 11.344 21.8786 12.1709 21.8786 13.1633C21.8786 13.8248 22.2094 14.3871 22.7055 14.7179L22.2755 16.5041C22.2755 16.5041 22.044 16.471 21.9117 16.471C20.9524 16.471 20.0924 16.9672 19.5962 17.6949L17.4462 17.0995C17.4462 17.0664 17.4462 17.0333 17.4462 16.9672C17.4462 16.2395 16.8508 15.6441 16.1562 15.6441C15.4284 15.6441 14.8661 16.2395 14.8661 16.9672C14.8661 17.6949 15.4615 18.2903 16.1562 18.2903C16.5862 18.2903 16.95 18.0918 17.1816 17.7941L19.2654 18.3895C19.1662 18.6872 19.1001 19.018 19.1001 19.3488C19.1001 19.7457 19.1662 20.1096 19.3316 20.4734L15.2961 22.8881C14.9984 22.5242 14.5354 22.2927 14.0392 22.2927C13.113 22.2927 12.3522 23.0535 12.3522 24.0127C12.3522 24.972 13.113 25.7327 14.0392 25.7327C14.9654 25.7327 15.7261 24.972 15.7261 24.0127C15.7261 23.8142 15.66 23.5165 15.66 23.5165L19.6624 21.0357C20.1916 21.6973 20.9855 22.1273 21.8786 22.1273C22.1763 22.1273 22.4409 22.0942 22.7055 21.995L23.4001 23.9135C23.0694 24.1781 22.8378 24.6081 22.8378 25.0712C22.8378 25.8981 23.4994 26.5597 24.3263 26.5597C25.1533 26.5597 25.8148 25.8981 25.8148 25.0712C25.8148 24.2443 25.1533 23.5827 24.3263 23.5827C24.2271 23.5827 24.1609 23.5827 24.0617 23.6158L23.4001 21.6973C24.194 21.2011 24.7232 20.308 24.7232 19.2826C24.7232 19.1834 24.7232 19.0841 24.7232 18.9849L27.9979 18.4226C28.2295 18.7534 28.6264 18.9518 29.0564 18.9518C29.7841 18.9518 30.3464 18.3564 30.3464 17.6287C30.3134 16.9341 29.718 16.3387 29.0233 16.3387ZM23.6978 12.0717C24.3263 12.0717 24.7894 12.5679 24.7894 13.1633C24.7894 13.7587 24.3263 14.2548 23.6978 14.2548C23.0694 14.2548 22.6063 13.7587 22.6063 13.1633C22.6063 12.5348 23.1024 12.0717 23.6978 12.0717ZM16.1562 17.5295C15.8585 17.5295 15.5938 17.2649 15.5938 16.9672C15.5938 16.6695 15.8585 16.4049 16.1562 16.4049C16.4539 16.4049 16.7185 16.6695 16.7185 16.9672C16.7185 17.2649 16.4539 17.5295 16.1562 17.5295ZM14.0392 25.005C13.5099 25.005 13.0799 24.575 13.0799 24.0458C13.0799 23.5165 13.5099 23.0865 14.0392 23.0865C14.5684 23.0865 14.9984 23.5165 14.9984 24.0458C14.9984 24.575 14.5684 25.005 14.0392 25.005ZM25.0871 25.0712C25.0871 25.4681 24.7563 25.832 24.3263 25.832C23.9294 25.832 23.5655 25.5012 23.5655 25.0712C23.5655 24.6743 23.8963 24.3104 24.3263 24.3104C24.7563 24.3104 25.0871 24.6412 25.0871 25.0712ZM21.8786 21.3996C20.6878 21.3996 19.7616 20.4403 19.7616 19.2826C19.7616 18.1249 20.6878 17.1656 21.8786 17.1656C23.0694 17.1656 23.9955 18.1249 23.9955 19.2826C23.9955 20.4734 23.0694 21.3996 21.8786 21.3996ZM29.0233 18.2241C28.7256 18.2241 28.4279 17.9595 28.4279 17.6618C28.4279 17.3641 28.6926 17.0664 29.0233 17.0664C29.3541 17.0664 29.6187 17.331 29.6187 17.6287C29.6187 17.9264 29.321 18.2241 29.0233 18.2241Z" fill="white"/>
</g>
<path id="Vector 1" d="M-7.70308 27.1132L27.1949 48.671L37.6939 34.1375C37.6939 34.1375 28.919 35.9735 22.5601 35.2061C17.2063 34.5601 12.3667 31.2925 9.23445 25.9603C6.0921 20.611 6.97179 13.6507 10.4711 8.88555C14.6028 3.25906 21.795 0.254682 21.795 0.254682L13.9372 -7.91821L-7.70308 27.1132Z" fill="url(#paint0_linear_970_9086)"/>
</g>
</g>
<defs>
<linearGradient id="paint0_linear_970_9086" x1="32.2329" y1="63.7218" x2="6.90113" y2="4.50601" gradientUnits="userSpaceOnUse">
<stop stop-color="#B45309"/>
<stop offset="1" stop-color="#B45309" stop-opacity="0"/>
</linearGradient>
</defs>
</svg>
