<svg width="41" height="41" viewBox="0 0 41 41" fill="none" xmlns="http://www.w3.org/2000/svg">
<g id="Drainage">
<mask id="mask0_782_11091" style="mask-type:alpha" maskUnits="userSpaceOnUse" x="0" y="0" width="41" height="41">
<circle id="Ellipse 4" cx="20.6582" cy="20.1624" r="20" fill="#D9D9D9"/>
</mask>
<g mask="url(#mask0_782_11091)">
<path id="Ellipse 5" d="M40.6582 20.1624C40.6582 31.208 31.7039 40.1624 20.6582 40.1624C9.61251 40.1624 0.658203 31.208 0.658203 20.1624C0.658203 9.11666 9.61251 0.162354 20.6582 0.162354C31.7039 0.162354 40.6582 9.11666 40.6582 20.1624Z" fill="#DC2626"/>
<g id="Group">
<path id="Vector" d="M30.6616 18.674L27.0742 12.5242C27.0059 12.3875 26.8692 12.3192 26.7325 12.3192H16.4145C16.2779 12.3192 16.1412 12.3875 16.0729 12.5242L12.4855 18.674C12.3147 18.9473 12.5197 19.289 12.8272 19.289H16.3462V21.3389C16.3462 22.5005 18.4645 22.9447 19.6261 23.0814V23.9355C19.6261 24.5163 19.1478 24.9946 18.567 24.9946H12.8613C12.6222 24.9946 12.4513 25.1655 12.4513 25.4046V28.4112C12.4513 28.6503 12.6222 28.8212 12.8613 28.8212H18.6011C21.3002 28.8212 23.4868 26.6346 23.4868 23.9355V23.0814C24.6143 22.9447 26.7667 22.5005 26.7667 21.3389V19.289H30.2858C30.6274 19.289 30.7982 18.9473 30.6616 18.674ZM25.9126 21.3389C25.9126 21.5439 25.1609 22.0906 23.0427 22.3297C22.8377 22.3639 22.6668 22.5347 22.6668 22.7397V23.9355C22.6668 26.1904 20.8561 28.0012 18.6011 28.0012H13.2372V25.7804H18.6011C19.6261 25.7804 20.4461 24.9605 20.4461 23.9355V22.7055C20.4461 22.5005 20.2753 22.3297 20.0703 22.2956C18.0203 22.0906 17.132 21.5439 17.132 21.3048V19.2548H25.9126V21.3389ZM13.5446 18.5032L16.6537 13.1392H26.4934L29.6024 18.5032H13.5446Z" fill="white"/>
<path id="Vector_2" d="M24.7852 14.3008C21.9495 13.105 16.9271 13.925 16.9271 15.8041C16.9271 17.7173 21.9836 18.5032 24.7852 17.3074C26.6985 16.5216 26.6985 15.0866 24.7852 14.3008ZM24.1019 17.1365C21.232 18.0248 17.3371 17.1024 17.3371 15.8041C17.3371 15.3941 17.7813 14.9841 18.4987 14.6766C19.3187 14.335 20.412 14.13 21.5736 14.13C23.9994 14.13 25.8102 14.9499 25.8102 15.8041C25.8102 16.4874 24.7852 16.9315 24.1019 17.1365Z" fill="white"/>
<path id="Vector_3" d="M14.7745 17.444C14.7745 18.2639 17.132 18.2639 17.132 17.444C17.132 16.624 14.7745 16.624 14.7745 17.444ZM15.9703 17.649C15.492 17.649 15.2187 17.5123 15.1845 17.444C15.2529 17.3073 15.902 17.1365 16.4486 17.3073C16.6195 17.3415 16.722 17.4098 16.722 17.444C16.6878 17.5123 16.4145 17.649 15.9703 17.649Z" fill="white"/>
<path id="Vector_4" d="M26.7667 18.0248C27.4842 18.1614 28.3725 17.9565 28.3725 17.444C28.3725 16.7607 26.6642 16.624 26.1518 17.1365C25.8784 17.4098 25.9809 17.8881 26.7667 18.0248ZM26.6984 17.3073C27.2792 17.1365 27.8942 17.3073 27.9625 17.444C27.9284 17.5123 27.655 17.649 27.1767 17.649C26.6984 17.649 26.4251 17.5123 26.3909 17.444C26.4251 17.4098 26.5276 17.3415 26.6984 17.3073Z" fill="white"/>
<path id="Vector_5" d="M18.3961 13.7542C18.3961 13.1734 16.6879 13.1734 16.6879 13.7542C16.6879 14.335 18.3961 14.3692 18.3961 13.7542ZM17.542 13.6176C17.8837 13.6176 18.0545 13.72 18.0887 13.7542C18.0545 13.7884 17.8837 13.8909 17.542 13.8909C17.2003 13.8909 17.0295 13.7884 16.9954 13.7542C17.0295 13.72 17.2003 13.6176 17.542 13.6176Z" fill="white"/>
<path id="Vector_6" d="M26.4593 13.7542C26.4593 13.1734 24.751 13.1734 24.751 13.7542C24.751 14.335 26.4593 14.3692 26.4593 13.7542ZM25.6051 13.6176C25.9468 13.6176 26.1176 13.72 26.1518 13.7542C26.1176 13.7884 25.9468 13.8909 25.6051 13.8909C25.2635 13.8909 25.0926 13.8225 25.0585 13.7542C25.0926 13.72 25.2635 13.6176 25.6051 13.6176Z" fill="white"/>
<path id="Vector_7" d="M24.3069 16.2483H18.8404C18.7379 16.2483 18.6354 16.3508 18.6354 16.4533C18.6354 16.5558 18.7379 16.6583 18.8404 16.6583H24.341C24.4435 16.6583 24.546 16.5558 24.546 16.4533C24.5118 16.3508 24.4435 16.2483 24.3069 16.2483Z" fill="white"/>
<path id="Vector_8" d="M19.2162 15.8383H23.9652C24.0677 15.8383 24.1702 15.7358 24.1702 15.6333C24.1702 15.5308 24.0677 15.4283 23.9652 15.4283H19.2162C19.1137 15.4283 19.0112 15.5308 19.0112 15.6333C19.0112 15.7358 19.0796 15.8383 19.2162 15.8383Z" fill="white"/>
<path id="Vector_9" d="M19.5918 14.9842H23.555C23.6575 14.9842 23.76 14.8817 23.76 14.7792C23.76 14.6767 23.6575 14.5742 23.555 14.5742H19.5918C19.4893 14.5742 19.3868 14.6767 19.3868 14.7792C19.3868 14.9159 19.4893 14.9842 19.5918 14.9842Z" fill="white"/>
</g>
<path id="Vector 1" d="M-7.47512 27.1473L27.4228 48.7051L37.9219 34.1716C37.9219 34.1716 29.1469 36.0075 22.788 35.2402C17.4343 34.5942 12.5947 31.3265 9.46241 25.9944C6.32006 20.6451 7.19976 13.6848 10.699 8.91961C14.8308 3.29312 22.023 0.28874 22.023 0.28874L14.1652 -7.88416L-7.47512 27.1473Z" fill="url(#paint0_linear_782_11091)"/>
</g>
</g>
<defs>
<linearGradient id="paint0_linear_782_11091" x1="32.4609" y1="63.7558" x2="7.12909" y2="4.54007" gradientUnits="userSpaceOnUse">
<stop stop-color="#991B1B"/>
<stop offset="1" stop-color="#991B1B" stop-opacity="0"/>
</linearGradient>
</defs>
</svg>
