<svg xmlns="http://www.w3.org/2000/svg" fill="none" viewBox="0 0 45 58"><path fill="#0051A4" d="M44.418 48.231c0-3.33-2.696-6.143-5.898-6.143-.626 0-1.998.543-3.467 1.11-2.335.913-5.224 2.048-7.511 2.048-3.346 0-6.332-1.332-8.619-3.824a13.76 13.76 0 0 1-1.155-1.456c4.044 8.635 11.555 14.383 20.848 15.543 3.25-1.554 5.802-3.898 5.802-7.278Z"/><path fill="url(#a)" d="M36.642 55.917c-2.712.967-5.723 1.547-8.186 1.788h-.025c-.423.024-.821.024-1.17.024-12.84 0-23.315-8.527-26.152-21.259 1.966-1.208 5.524-2.609 11.695-3.116h.025c.224-.024.448-.024.647-.049 2.787 12.055 11.57 20.559 23.166 22.612Z"/><path fill="#B0A79E" d="M26.742 0c-.387 0-.774 0-1.209.025-6.939 5.83-11.098 15.123-11.098 24.89 0 .896.049 1.818.121 2.84.218-3.713 1.33-7.101 3.143-9.667 2.346-3.289 5.706-5.033 9.768-5.033 2.612 0 4.812.872 6.77 1.644 1.717.673 3.313 1.32 4.981 1.32 3.216 0 5.199-3.985 5.199-6.85C44.44 2.241 32.52 0 26.742 0Z"/><path fill="#7B6A63" d="M11.703 24.362c0 1.057.049 2.163.195 3.393C5.448 27.238 1.906 25.64 0 24.288c.855-6.391 3.665-12.316 7.916-16.766C11.874 3.417 16.785.836 22.209 0c-6.597 5.95-10.506 14.947-10.506 24.362Z"/><defs><linearGradient id="a" x1="26.157" x2="1.04" y1="57.729" y2="36.914" gradientUnits="userSpaceOnUse"><stop stop-color="#1F1554"/><stop offset="1" stop-color="#034688"/></linearGradient></defs></svg>
